<svg width="25" height="24" viewBox="0 0 25 24" fill="none" xmlns="http://www.w3.org/2000/svg">
<g clip-path="url(#clip0_6004_403)">
<path d="M20.9408 4.49197C19.4108 3.80197 17.7708 3.29197 16.0558 3.00197C16.0405 2.99904 16.0247 3.00093 16.0105 3.00738C15.9964 3.01383 15.9846 3.02452 15.9768 3.03797C15.7668 3.40697 15.5328 3.88797 15.3688 4.26797C13.5499 3.99621 11.7007 3.99621 9.88177 4.26797C9.69911 3.84683 9.49312 3.4362 9.26477 3.03797C9.25703 3.02436 9.24532 3.01342 9.23121 3.00663C9.21709 2.99984 9.20124 2.99752 9.18577 2.99997C7.47177 3.28997 5.83177 3.79997 4.30077 4.49097C4.2876 4.4965 4.27643 4.50592 4.26877 4.51797C1.15677 9.09297 0.303772 13.555 0.722772 17.961C0.723938 17.9718 0.727287 17.9822 0.732617 17.9917C0.737946 18.0011 0.745144 18.0094 0.753772 18.016C2.57016 19.3384 4.59611 20.3458 6.74677 20.996C6.76176 21.0006 6.7778 21.0006 6.79278 20.9959C6.80777 20.9913 6.82101 20.9823 6.83077 20.97C7.29357 20.351 7.70367 19.6944 8.05677 19.007C8.06167 18.9976 8.0645 18.9872 8.06505 18.9766C8.06561 18.9661 8.06389 18.9555 8.06 18.9456C8.05611 18.9358 8.05015 18.9268 8.04252 18.9195C8.03489 18.9121 8.02577 18.9065 8.01577 18.903C7.36978 18.6597 6.74386 18.3661 6.14377 18.025C6.13299 18.0188 6.1239 18.0101 6.11733 17.9995C6.11075 17.989 6.1069 17.977 6.1061 17.9646C6.10531 17.9522 6.10761 17.9398 6.11279 17.9286C6.11796 17.9173 6.12586 17.9075 6.13577 17.9C6.26177 17.807 6.38777 17.71 6.50777 17.613C6.51857 17.6043 6.53158 17.5987 6.54536 17.5969C6.55913 17.5952 6.57312 17.5973 6.58577 17.603C10.5128 19.367 14.7658 19.367 18.6468 17.603C18.6595 17.5969 18.6736 17.5946 18.6876 17.5961C18.7015 17.5977 18.7148 17.6032 18.7258 17.612C18.8458 17.71 18.9708 17.807 19.0978 17.9C19.1078 17.9073 19.1158 17.917 19.1212 17.9282C19.1265 17.9394 19.129 17.9517 19.1284 17.9641C19.1278 17.9765 19.1241 17.9885 19.1177 17.9991C19.1114 18.0098 19.1024 18.0186 19.0918 18.025C18.4938 18.369 17.8718 18.66 17.2188 18.902C17.2087 18.9056 17.1996 18.9114 17.192 18.9188C17.1843 18.9263 17.1784 18.9353 17.1745 18.9452C17.1706 18.9551 17.1689 18.9658 17.1695 18.9764C17.17 18.9871 17.1729 18.9975 17.1778 19.007C17.5378 19.694 17.9498 20.348 18.4028 20.969C18.4122 20.9817 18.4253 20.9912 18.4403 20.9963C18.4554 21.0013 18.4716 21.0015 18.4868 20.997C20.6411 20.3486 22.6704 19.3407 24.4888 18.016C24.4976 18.0098 24.5051 18.0017 24.5106 17.9924C24.5161 17.9831 24.5196 17.9727 24.5208 17.962C25.0208 12.868 23.6828 8.44197 20.9718 4.51997C20.9651 4.50723 20.9541 4.49729 20.9408 4.49197ZM8.64377 15.278C7.46177 15.278 6.48677 14.209 6.48677 12.898C6.48677 11.586 7.44277 10.518 8.64377 10.518C9.85377 10.518 10.8198 11.595 10.8008 12.898C10.8008 14.21 9.84477 15.278 8.64377 15.278ZM16.6188 15.278C15.4358 15.278 14.4618 14.209 14.4618 12.898C14.4618 11.586 15.4168 10.518 16.6188 10.518C17.8288 10.518 18.7948 11.595 18.7758 12.898C18.7758 14.21 17.8298 15.278 16.6188 15.278Z" fill="white"/>
</g>
<defs>
<clipPath id="clip0_6004_403">
<rect width="24" height="24" fill="white" transform="translate(0.623779)"/>
</clipPath>
</defs>
</svg>
