<svg width="25" height="24" viewBox="0 0 25 24" fill="none" xmlns="http://www.w3.org/2000/svg">
<g clip-path="url(#clip0_6004_75)">
<path d="M24.4152 4.93708C23.5802 5.30708 22.6832 5.55708 21.7402 5.67008C22.7132 5.08787 23.4412 4.17154 23.7882 3.09208C22.8741 3.63507 21.8736 4.01727 20.8302 4.22208C20.1286 3.47294 19.1993 2.9764 18.1866 2.80955C17.1738 2.6427 16.1343 2.81487 15.2295 3.29933C14.3246 3.78379 13.605 4.55344 13.1824 5.48878C12.7598 6.42412 12.6578 7.47283 12.8922 8.47208C11.0399 8.37907 9.22786 7.89763 7.57365 7.05898C5.91945 6.22034 4.46007 5.04324 3.29023 3.60408C2.89023 4.29408 2.66023 5.09408 2.66023 5.94608C2.65978 6.71307 2.84866 7.46832 3.21011 8.14481C3.57155 8.8213 4.09439 9.39812 4.73223 9.82408C3.9925 9.80054 3.2691 9.60066 2.62223 9.24108V9.30108C2.62215 10.3768 2.99426 11.4195 3.67541 12.2521C4.35656 13.0847 5.3048 13.656 6.35923 13.8691C5.67301 14.0548 4.95357 14.0821 4.25523 13.9491C4.55273 14.8747 5.13222 15.6841 5.9126 16.264C6.69297 16.8439 7.63515 17.1653 8.60723 17.1831C6.95706 18.4785 4.91912 19.1812 2.82123 19.1781C2.44961 19.1782 2.0783 19.1565 1.70923 19.1131C3.8387 20.4823 6.31757 21.2089 8.84923 21.2061C17.4192 21.2061 22.1042 14.1081 22.1042 7.95208C22.1042 7.75208 22.0992 7.55008 22.0902 7.35008C23.0015 6.69105 23.7881 5.87497 24.4132 4.94008L24.4152 4.93708Z" fill="white"/>
</g>
<defs>
<clipPath id="clip0_6004_75">
<rect width="24" height="24" fill="white" transform="translate(0.772217)"/>
</clipPath>
</defs>
</svg>
