<svg width="1512" height="591" viewBox="0 0 1512 591" fill="none" xmlns="http://www.w3.org/2000/svg">
<g opacity="0.6">
<path d="M558.538 1.92551C558.837 2.35736 448.797 119.702 312.9 264.134C177.002 408.567 66.0997 525.283 65.7677 524.851C65.4358 524.419 175.508 407.075 311.605 262.603C447.702 118.131 558.206 1.49367 558.538 1.92551Z" fill="url(#paint0_linear_433_672)"/>
<path d="M418.663 1.92787C418.939 2.48771 332.454 69.1558 225.444 150.846C118.433 232.537 31.4357 298.272 31.1199 297.712C30.8041 297.152 117.289 230.484 224.536 148.794C331.783 67.1031 418.347 1.36802 418.663 1.92787Z" fill="url(#paint1_linear_433_672)"/>
<path d="M683.013 15.3998C683.469 15.7978 607.261 142.485 512.82 298.402C418.378 454.318 341.523 580.387 341.029 580.033C340.534 579.679 416.742 452.991 511.221 297.031C605.701 141.07 682.556 15.1345 683.013 15.3998Z" fill="url(#paint2_linear_433_672)"/>
<path d="M989.073 0.000898083C989.407 -0.358302 1079.56 107.078 1190.46 239.946C1301.37 372.815 1391 480.862 1390.73 481.221C1390.46 481.58 1300.28 374.18 1189.34 241.276C1078.4 108.371 988.769 0.360098 989.073 0.000898083Z" fill="url(#paint3_linear_433_672)"/>
<path d="M1122.53 0.00470278C1122.95 -0.654458 1206.71 68.063 1309.69 153.424C1412.67 238.785 1495.83 308.602 1495.32 309.261C1494.8 309.92 1411.18 241.202 1308.2 155.786C1205.23 70.37 1122.16 0.663863 1122.53 0.00470278Z" fill="url(#paint4_linear_433_672)"/>
<path d="M860.748 0.000655186C861.164 -0.326936 927.303 122.233 1008.42 273.703C1089.55 425.173 1155.03 548.306 1154.61 548.593C1154.19 548.879 1088.06 426.36 1006.9 274.849C925.743 123.339 860.297 0.287297 860.748 0.000655186Z" fill="url(#paint5_linear_433_672)"/>
<path d="M757.912 7.05762C758.494 7.05762 759.309 137.643 759.736 298.656C760.163 459.67 760.085 590.299 759.542 590.299C758.999 590.299 758.145 459.758 757.718 298.656C757.291 137.554 757.368 7.05762 757.912 7.05762Z" fill="url(#paint6_linear_433_672)"/>
<path d="M1305.79 79.1363C1305.79 79.5529 1056.86 79.8585 749.885 79.8585C442.91 79.8585 193.931 79.5529 193.931 79.1363C193.931 78.7196 442.792 78.4141 749.885 78.4141C1056.98 78.4141 1305.79 78.7474 1305.79 79.1363Z" fill="url(#paint7_linear_433_672)"/>
<path d="M1377.26 168.714C1377.26 169.131 1102.2 169.436 762.963 169.436C423.727 169.436 148.537 169.131 148.537 168.714C148.537 168.297 423.597 168.02 762.963 168.02C1102.33 168.02 1377.26 168.325 1377.26 168.714Z" fill="url(#paint8_linear_433_672)"/>
<path d="M1512 264.404C1512 264.821 1193.85 265.127 801.471 265.127C409.091 265.127 90.7906 264.821 90.7906 264.404C90.7906 263.988 408.94 263.71 801.471 263.71C1194 263.71 1512 264.015 1512 264.404Z" fill="url(#paint9_linear_433_672)"/>
<path d="M1512 360.007C1512 360.424 1193.85 360.729 801.471 360.729C409.091 360.729 90.7906 360.424 90.7906 360.007C90.7906 359.59 408.94 359.312 801.471 359.312C1194 359.312 1512 359.618 1512 360.007Z" fill="url(#paint10_linear_433_672)"/>
<path opacity="0.02" d="M591.648 168.714L646.141 79.1362L758.089 79.4973L758.465 169.658L591.648 168.714Z" fill="url(#paint11_linear_433_672)"/>
<path opacity="0.01" d="M318.808 78.1904L423.492 0.000976562H562.569L485.672 79.4959L318.808 78.1904Z" fill="url(#paint12_linear_433_672)"/>
<path opacity="0.02" d="M313.589 261.929L405.226 168.713H591.649L536.121 261.929H313.589Z" fill="url(#paint13_linear_433_672)"/>
<path opacity="0.02" d="M0 360.134L87.5824 264.672L311.19 263.389L219.003 360.134H0Z" fill="url(#paint14_linear_433_672)"/>
<path opacity="0.02" d="M1054.2 360.134L1005.43 265.635L1211.72 263.068L1287.43 360.134H1054.2Z" fill="url(#paint15_linear_433_672)"/>
<path opacity="0.02" d="M476.089 359.312L533.515 264.351L757.444 264.351V359.312L476.089 359.312Z" fill="url(#paint16_linear_433_672)"/>
<path opacity="0.02" d="M1055.17 78.1919L901.28 79.4974L949.049 168.714H1127.6L1055.17 78.1919Z" fill="url(#paint17_linear_433_672)"/>
<path opacity="0.02" d="M951.447 168.713L758.466 169.658L759.077 261.93H1001L951.447 168.713Z" fill="url(#paint18_linear_433_672)"/>
<path opacity="0.01" d="M1055.17 78.1904L989.625 0.000976562H1122.21L1217.78 78.1904H1055.17Z" fill="url(#paint19_linear_433_672)"/>
</g>
<defs>
<linearGradient id="paint0_linear_433_672" x1="329.092" y1="-944.86" x2="92.1188" y2="488.474" gradientUnits="userSpaceOnUse">
<stop stop-color="white"/>
<stop offset="0.966118" stop-color="white" stop-opacity="0"/>
</linearGradient>
<linearGradient id="paint1_linear_433_672" x1="238.213" y1="-533.619" x2="140.551" y2="287.687" gradientUnits="userSpaceOnUse">
<stop stop-color="white"/>
<stop offset="0.966118" stop-color="white" stop-opacity="0"/>
</linearGradient>
<linearGradient id="paint2_linear_433_672" x1="523.776" y1="-1006.9" x2="140.183" y2="484.388" gradientUnits="userSpaceOnUse">
<stop stop-color="white"/>
<stop offset="0.966118" stop-color="white" stop-opacity="0"/>
</linearGradient>
<linearGradient id="paint3_linear_433_672" x1="1203.71" y1="-871.274" x2="959.292" y2="438.177" gradientUnits="userSpaceOnUse">
<stop stop-color="white"/>
<stop offset="0.966118" stop-color="white" stop-opacity="0"/>
</linearGradient>
<linearGradient id="paint4_linear_433_672" x1="1321.74" y1="-559.939" x2="1211.03" y2="296.613" gradientUnits="userSpaceOnUse">
<stop stop-color="white"/>
<stop offset="0.966118" stop-color="white" stop-opacity="0"/>
</linearGradient>
<linearGradient id="paint5_linear_433_672" x1="1017.78" y1="-993.252" x2="603.535" y2="431.052" gradientUnits="userSpaceOnUse">
<stop stop-color="white"/>
<stop offset="0.966118" stop-color="white" stop-opacity="0"/>
</linearGradient>
<linearGradient id="paint6_linear_433_672" x1="758.815" y1="-1048.93" x2="712.464" y2="-1047.62" gradientUnits="userSpaceOnUse">
<stop stop-color="white"/>
<stop offset="0.966118" stop-color="white" stop-opacity="0"/>
</linearGradient>
<linearGradient id="paint7_linear_433_672" x1="788.081" y1="75.7989" x2="788.081" y2="79.8662" gradientUnits="userSpaceOnUse">
<stop stop-color="white"/>
<stop offset="0.966118" stop-color="white" stop-opacity="0"/>
</linearGradient>
<linearGradient id="paint8_linear_433_672" x1="805.135" y1="165.455" x2="805.134" y2="169.444" gradientUnits="userSpaceOnUse">
<stop stop-color="white"/>
<stop offset="0.966118" stop-color="white" stop-opacity="0"/>
</linearGradient>
<linearGradient id="paint9_linear_433_672" x1="850.249" y1="261.145" x2="850.249" y2="265.134" gradientUnits="userSpaceOnUse">
<stop stop-color="white"/>
<stop offset="0.966118" stop-color="white" stop-opacity="0"/>
</linearGradient>
<linearGradient id="paint10_linear_433_672" x1="850.249" y1="356.748" x2="850.249" y2="360.737" gradientUnits="userSpaceOnUse">
<stop stop-color="white"/>
<stop offset="0.966118" stop-color="white" stop-opacity="0"/>
</linearGradient>
<linearGradient id="paint11_linear_433_672" x1="797.304" y1="8.98167" x2="718.802" y2="317.194" gradientUnits="userSpaceOnUse">
<stop offset="0.365638" stop-color="#3F37C9"/>
<stop offset="1" stop-color="#4CC9F0"/>
</linearGradient>
<linearGradient id="paint12_linear_433_672" x1="619.322" y1="-61.6076" x2="576.213" y2="220.02" gradientUnits="userSpaceOnUse">
<stop offset="0.365638" stop-color="#3F37C9"/>
<stop offset="1" stop-color="#4CC9F0"/>
</linearGradient>
<linearGradient id="paint13_linear_433_672" x1="656.388" y1="96.4703" x2="604.491" y2="426.28" gradientUnits="userSpaceOnUse">
<stop offset="0.365638" stop-color="#3F37C9"/>
<stop offset="1" stop-color="#4CC9F0"/>
</linearGradient>
<linearGradient id="paint14_linear_433_672" x1="383.643" y1="188.411" x2="333.525" y2="531.869" gradientUnits="userSpaceOnUse">
<stop offset="0.365638" stop-color="#3F37C9"/>
<stop offset="1" stop-color="#4CC9F0"/>
</linearGradient>
<linearGradient id="paint15_linear_433_672" x1="1353.09" y1="187.842" x2="1297.67" y2="530.824" gradientUnits="userSpaceOnUse">
<stop offset="0.365638" stop-color="#3F37C9"/>
<stop offset="1" stop-color="#4CC9F0"/>
</linearGradient>
<linearGradient id="paint16_linear_433_672" x1="822.95" y1="190.756" x2="769.741" y2="526.629" gradientUnits="userSpaceOnUse">
<stop offset="0.365638" stop-color="#3F37C9"/>
<stop offset="1" stop-color="#4CC9F0"/>
</linearGradient>
<linearGradient id="paint17_linear_433_672" x1="1180.29" y1="8.03734" x2="1120.77" y2="325.071" gradientUnits="userSpaceOnUse">
<stop offset="0.365638" stop-color="#3F37C9"/>
<stop offset="1" stop-color="#4CC9F0"/>
</linearGradient>
<linearGradient id="paint18_linear_433_672" x1="1057.47" y1="96.4708" x2="998.424" y2="423.795" gradientUnits="userSpaceOnUse">
<stop offset="0.365638" stop-color="#3F37C9"/>
<stop offset="1" stop-color="#4CC9F0"/>
</linearGradient>
<linearGradient id="paint19_linear_433_672" x1="1270.89" y1="-60.5959" x2="1226.44" y2="215.747" gradientUnits="userSpaceOnUse">
<stop offset="0.365638" stop-color="#3F37C9"/>
<stop offset="1" stop-color="#4CC9F0"/>
</linearGradient>
</defs>
</svg>
