<svg width="1756" height="700" viewBox="0 0 1756 700" fill="none" xmlns="http://www.w3.org/2000/svg">
<path d="M625.971 2.28267C626.325 2.79448 495.908 141.869 334.844 313.049C173.78 484.228 42.3406 622.558 41.9472 622.046C41.5538 621.535 172.01 482.46 333.31 311.234C494.61 140.008 625.578 1.77085 625.971 2.28267Z" fill="url(#paint0_linear_364_2466)"/>
<path d="M460.193 2.28546C460.52 2.94898 358.02 81.9631 231.193 178.781C104.366 275.6 1.25712 353.508 0.882858 352.844C0.508598 352.181 103.009 273.167 230.117 176.349C357.225 79.5301 459.818 1.62194 460.193 2.28546Z" fill="url(#paint1_linear_364_2466)"/>
<path d="M773.497 18.2512C774.038 18.7229 683.717 168.871 571.787 353.661C459.856 538.451 368.769 687.865 368.182 687.446C367.596 687.026 457.916 536.878 569.892 352.036C681.868 167.194 772.955 17.9368 773.497 18.2512Z" fill="url(#paint2_linear_364_2466)"/>
<path d="M1136.23 0.00106439C1136.63 -0.424654 1243.48 126.908 1374.92 284.381C1506.36 441.854 1612.6 569.911 1612.27 570.336C1611.95 570.762 1505.07 443.472 1373.59 285.956C1242.11 128.44 1135.87 0.426783 1136.23 0.00106439Z" fill="url(#paint3_linear_364_2466)"/>
<path d="M1294.41 0.00557366C1294.9 -0.775653 1394.18 80.6672 1516.22 181.836C1638.27 283.005 1736.83 365.75 1736.23 366.531C1735.62 367.312 1636.51 285.87 1514.46 184.635C1392.42 83.4015 1293.97 0.786801 1294.41 0.00557366Z" fill="url(#paint4_linear_364_2466)"/>
<path d="M984.146 0.000776517C984.64 -0.387479 1063.03 144.869 1159.17 324.389C1255.31 503.908 1332.92 649.844 1332.43 650.184C1331.93 650.524 1253.55 505.316 1157.36 325.747C1061.18 146.179 983.612 0.3405 984.146 0.000776517Z" fill="url(#paint5_linear_364_2466)"/>
<path d="M862.266 8.36499C862.956 8.36499 863.922 163.132 864.428 353.963C864.934 544.794 864.842 699.614 864.198 699.614C863.554 699.614 862.542 544.899 862.036 353.963C861.53 163.027 861.622 8.36499 862.266 8.36499Z" fill="url(#paint6_linear_364_2466)"/>
<path d="M1511.61 93.7915C1511.61 94.2853 1216.57 94.6474 852.752 94.6474C488.93 94.6474 193.844 94.2853 193.844 93.7915C193.844 93.2977 488.791 92.9355 852.752 92.9355C1216.71 92.9355 1511.61 93.3306 1511.61 93.7915Z" fill="url(#paint7_linear_364_2466)"/>
<path d="M1596.31 199.957C1596.31 200.451 1270.31 200.813 868.252 200.813C466.195 200.813 140.044 200.451 140.044 199.957C140.044 199.463 466.04 199.134 868.252 199.134C1270.46 199.134 1596.31 199.496 1596.31 199.957Z" fill="url(#paint8_linear_364_2466)"/>
<path d="M1756 313.368C1756 313.862 1378.93 314.224 913.891 314.224C448.849 314.224 71.6035 313.862 71.6035 313.368C71.6035 312.874 448.67 312.545 913.891 312.545C1379.11 312.545 1756 312.907 1756 313.368Z" fill="url(#paint9_linear_364_2466)"/>
<path d="M1756 426.675C1756 427.169 1378.93 427.531 913.891 427.531C448.849 427.531 71.6035 427.169 71.6035 426.675C71.6035 426.181 448.67 425.852 913.891 425.852C1379.11 425.852 1756 426.214 1756 426.675Z" fill="url(#paint10_linear_364_2466)"/>
<defs>
<linearGradient id="paint0_linear_364_2466" x1="354.035" y1="-1119.83" x2="73.1781" y2="578.933" gradientUnits="userSpaceOnUse">
<stop stop-color="white"/>
<stop offset="0.966118" stop-color="white" stop-opacity="0"/>
</linearGradient>
<linearGradient id="paint1_linear_364_2466" x1="246.327" y1="-632.436" x2="130.58" y2="340.963" gradientUnits="userSpaceOnUse">
<stop stop-color="white"/>
<stop offset="0.966118" stop-color="white" stop-opacity="0"/>
</linearGradient>
<linearGradient id="paint2_linear_364_2466" x1="584.772" y1="-1193.36" x2="130.143" y2="574.089" gradientUnits="userSpaceOnUse">
<stop stop-color="white"/>
<stop offset="0.966118" stop-color="white" stop-opacity="0"/>
</linearGradient>
<linearGradient id="paint3_linear_364_2466" x1="1390.62" y1="-1032.62" x2="1100.94" y2="519.321" gradientUnits="userSpaceOnUse">
<stop stop-color="white"/>
<stop offset="0.966118" stop-color="white" stop-opacity="0"/>
</linearGradient>
<linearGradient id="paint4_linear_364_2466" x1="1530.51" y1="-663.631" x2="1399.3" y2="351.541" gradientUnits="userSpaceOnUse">
<stop stop-color="white"/>
<stop offset="0.966118" stop-color="white" stop-opacity="0"/>
</linearGradient>
<linearGradient id="paint5_linear_364_2466" x1="1170.26" y1="-1177.19" x2="679.301" y2="510.876" gradientUnits="userSpaceOnUse">
<stop stop-color="white"/>
<stop offset="0.966118" stop-color="white" stop-opacity="0"/>
</linearGradient>
<linearGradient id="paint6_linear_364_2466" x1="863.336" y1="-1243.17" x2="808.402" y2="-1241.62" gradientUnits="userSpaceOnUse">
<stop stop-color="white"/>
<stop offset="0.966118" stop-color="white" stop-opacity="0"/>
</linearGradient>
<linearGradient id="paint7_linear_364_2466" x1="898.023" y1="89.8361" x2="898.022" y2="94.6566" gradientUnits="userSpaceOnUse">
<stop stop-color="white"/>
<stop offset="0.966118" stop-color="white" stop-opacity="0"/>
</linearGradient>
<linearGradient id="paint8_linear_364_2466" x1="918.234" y1="196.094" x2="918.233" y2="200.822" gradientUnits="userSpaceOnUse">
<stop stop-color="white"/>
<stop offset="0.966118" stop-color="white" stop-opacity="0"/>
</linearGradient>
<linearGradient id="paint9_linear_364_2466" x1="971.703" y1="309.505" x2="971.702" y2="314.233" gradientUnits="userSpaceOnUse">
<stop stop-color="white"/>
<stop offset="0.966118" stop-color="white" stop-opacity="0"/>
</linearGradient>
<linearGradient id="paint10_linear_364_2466" x1="971.703" y1="422.812" x2="971.702" y2="427.54" gradientUnits="userSpaceOnUse">
<stop stop-color="white"/>
<stop offset="0.966118" stop-color="white" stop-opacity="0"/>
</linearGradient>
</defs>
</svg>
