<svg width="710" height="8613" viewBox="0 0 710 8613" fill="none" xmlns="http://www.w3.org/2000/svg">
<g style="mix-blend-mode:overlay">
<line x1="0.265712" x2="0.265712" y2="3421.91" stroke="white" stroke-opacity="0.2" stroke-width="0.492361"/>
<line x1="14.4452" x2="14.4452" y2="3421.91" stroke="white" stroke-opacity="0.2" stroke-width="0.492361"/>
<line x1="28.6247" x2="28.6247" y2="3421.91" stroke="white" stroke-opacity="0.2" stroke-width="0.492361"/>
<line x1="42.8043" x2="42.8043" y2="3421.91" stroke="white" stroke-opacity="0.2" stroke-width="0.492361"/>
<line x1="56.9839" x2="56.9839" y2="3421.91" stroke="white" stroke-opacity="0.2" stroke-width="0.492361"/>
<line x1="71.1635" x2="71.1635" y2="3421.91" stroke="white" stroke-opacity="0.2" stroke-width="0.492361"/>
<line x1="85.3431" x2="85.3431" y2="3421.91" stroke="white" stroke-opacity="0.2" stroke-width="0.492361"/>
<line x1="99.5228" x2="99.5228" y2="3421.91" stroke="white" stroke-opacity="0.2" stroke-width="0.492361"/>
<line x1="113.702" x2="113.702" y2="3421.91" stroke="white" stroke-opacity="0.2" stroke-width="0.492361"/>
<line x1="127.882" x2="127.882" y2="3421.91" stroke="white" stroke-opacity="0.2" stroke-width="0.492361"/>
<line x1="142.062" x2="142.062" y2="3421.91" stroke="white" stroke-opacity="0.2" stroke-width="0.492361"/>
<line x1="156.241" x2="156.241" y2="3421.91" stroke="white" stroke-opacity="0.2" stroke-width="0.492361"/>
<line x1="170.421" x2="170.421" y2="3421.91" stroke="white" stroke-opacity="0.2" stroke-width="0.492361"/>
<line x1="184.6" x2="184.6" y2="3421.91" stroke="white" stroke-opacity="0.2" stroke-width="0.492361"/>
<line x1="198.78" x2="198.78" y2="3421.91" stroke="white" stroke-opacity="0.2" stroke-width="0.492361"/>
<line x1="212.96" x2="212.96" y2="3421.91" stroke="white" stroke-opacity="0.2" stroke-width="0.492361"/>
<line x1="227.139" x2="227.139" y2="3421.91" stroke="white" stroke-opacity="0.2" stroke-width="0.492361"/>
<line x1="241.319" x2="241.319" y2="3421.91" stroke="white" stroke-opacity="0.2" stroke-width="0.492361"/>
<line x1="255.498" x2="255.499" y2="3421.91" stroke="white" stroke-opacity="0.2" stroke-width="0.492361"/>
<line x1="269.678" x2="269.678" y2="3421.91" stroke="white" stroke-opacity="0.2" stroke-width="0.492361"/>
<line x1="283.858" x2="283.858" y2="3421.91" stroke="white" stroke-opacity="0.2" stroke-width="0.492361"/>
<line x1="298.037" x2="298.037" y2="3421.91" stroke="white" stroke-opacity="0.2" stroke-width="0.492361"/>
<line x1="312.217" x2="312.217" y2="3421.91" stroke="white" stroke-opacity="0.2" stroke-width="0.492361"/>
<line x1="326.397" x2="326.397" y2="3421.91" stroke="white" stroke-opacity="0.2" stroke-width="0.492361"/>
<line x1="340.576" x2="340.576" y2="3421.91" stroke="white" stroke-opacity="0.2" stroke-width="0.492361"/>
<line x1="354.756" x2="354.756" y2="3421.91" stroke="white" stroke-opacity="0.2" stroke-width="0.492361"/>
<line x1="368.935" x2="368.935" y2="3421.91" stroke="white" stroke-opacity="0.2" stroke-width="0.492361"/>
<line x1="383.115" x2="383.115" y2="3421.91" stroke="white" stroke-opacity="0.2" stroke-width="0.492361"/>
<line x1="397.295" x2="397.295" y2="3421.91" stroke="white" stroke-opacity="0.2" stroke-width="0.492361"/>
<line x1="411.474" x2="411.474" y2="3421.91" stroke="white" stroke-opacity="0.2" stroke-width="0.492361"/>
<line x1="425.654" x2="425.654" y2="3421.91" stroke="white" stroke-opacity="0.2" stroke-width="0.492361"/>
<line x1="439.834" x2="439.834" y2="3421.91" stroke="white" stroke-opacity="0.2" stroke-width="0.492361"/>
<line x1="454.013" x2="454.013" y2="3421.91" stroke="white" stroke-opacity="0.2" stroke-width="0.492361"/>
<line x1="468.193" x2="468.193" y2="3421.91" stroke="white" stroke-opacity="0.2" stroke-width="0.492361"/>
<line x1="482.372" x2="482.372" y2="3421.91" stroke="white" stroke-opacity="0.2" stroke-width="0.492361"/>
<line x1="496.552" x2="496.552" y2="3421.91" stroke="white" stroke-opacity="0.2" stroke-width="0.492361"/>
<line x1="510.732" x2="510.732" y2="3421.91" stroke="white" stroke-opacity="0.2" stroke-width="0.492361"/>
<line x1="524.911" x2="524.911" y2="3421.91" stroke="white" stroke-opacity="0.2" stroke-width="0.492361"/>
<line x1="539.091" x2="539.091" y2="3421.91" stroke="white" stroke-opacity="0.2" stroke-width="0.492361"/>
<line x1="553.27" x2="553.27" y2="3421.91" stroke="white" stroke-opacity="0.2" stroke-width="0.492361"/>
<line x1="567.45" x2="567.45" y2="3421.91" stroke="white" stroke-opacity="0.2" stroke-width="0.492361"/>
<line x1="581.629" x2="581.629" y2="3421.91" stroke="white" stroke-opacity="0.2" stroke-width="0.492361"/>
<line x1="595.809" x2="595.809" y2="3421.91" stroke="white" stroke-opacity="0.2" stroke-width="0.492361"/>
<line x1="609.989" x2="609.989" y2="3421.91" stroke="white" stroke-opacity="0.2" stroke-width="0.492361"/>
<line x1="624.169" x2="624.169" y2="3421.91" stroke="white" stroke-opacity="0.2" stroke-width="0.492361"/>
<line x1="638.348" x2="638.348" y2="3421.91" stroke="white" stroke-opacity="0.2" stroke-width="0.492361"/>
<line x1="652.528" x2="652.528" y2="3421.91" stroke="white" stroke-opacity="0.2" stroke-width="0.492361"/>
<line x1="666.707" x2="666.707" y2="3421.91" stroke="white" stroke-opacity="0.2" stroke-width="0.492361"/>
<line x1="680.887" x2="680.887" y2="3421.91" stroke="white" stroke-opacity="0.2" stroke-width="0.492361"/>
<line x1="695.066" x2="695.066" y2="3421.91" stroke="white" stroke-opacity="0.2" stroke-width="0.492361"/>
<line x1="709.246" x2="709.246" y2="3421.91" stroke="white" stroke-opacity="0.2" stroke-width="0.492361"/>
<line x1="708.981" y1="0.24618" x2="0.0003662" y2="0.24615" stroke="white" stroke-opacity="0.2" stroke-width="0.492361"/>
<line x1="708.982" y1="14.0323" x2="0.000854481" y2="14.0323" stroke="white" stroke-opacity="0.2" stroke-width="0.492361"/>
<line x1="708.982" y1="201.142" x2="0.000854481" y2="201.142" stroke="white" stroke-opacity="0.2" stroke-width="0.492361"/>
<line x1="708.982" y1="214.928" x2="0.000854481" y2="214.928" stroke="white" stroke-opacity="0.2" stroke-width="0.492361"/>
<line x1="708.982" y1="228.714" x2="0.000854481" y2="228.714" stroke="white" stroke-opacity="0.2" stroke-width="0.492361"/>
<line x1="708.982" y1="242.501" x2="0.000854481" y2="242.501" stroke="white" stroke-opacity="0.2" stroke-width="0.492361"/>
<line x1="708.982" y1="429.61" x2="0.000854481" y2="429.61" stroke="white" stroke-opacity="0.2" stroke-width="0.492361"/>
<line x1="708.982" y1="443.396" x2="0.000854481" y2="443.396" stroke="white" stroke-opacity="0.2" stroke-width="0.492361"/>
<line x1="708.982" y1="457.183" x2="0.000854481" y2="457.183" stroke="white" stroke-opacity="0.2" stroke-width="0.492361"/>
<line x1="708.982" y1="644.292" x2="0.000854481" y2="644.292" stroke="white" stroke-opacity="0.2" stroke-width="0.492361"/>
<line x1="708.982" y1="658.079" x2="0.000854481" y2="658.079" stroke="white" stroke-opacity="0.2" stroke-width="0.492361"/>
<line x1="708.982" y1="671.865" x2="0.000854481" y2="671.865" stroke="white" stroke-opacity="0.2" stroke-width="0.492361"/>
<line x1="708.982" y1="685.651" x2="0.000854481" y2="685.651" stroke="white" stroke-opacity="0.2" stroke-width="0.492361"/>
<line x1="708.982" y1="872.761" x2="0.000854481" y2="872.761" stroke="white" stroke-opacity="0.2" stroke-width="0.492361"/>
<line x1="708.982" y1="886.547" x2="0.000854481" y2="886.547" stroke="white" stroke-opacity="0.2" stroke-width="0.492361"/>
<line x1="708.982" y1="900.333" x2="0.000854481" y2="900.333" stroke="white" stroke-opacity="0.2" stroke-width="0.492361"/>
<line x1="708.982" y1="914.119" x2="0.000854481" y2="914.119" stroke="white" stroke-opacity="0.2" stroke-width="0.492361"/>
<line x1="708.982" y1="1101.23" x2="0.000854481" y2="1101.23" stroke="white" stroke-opacity="0.2" stroke-width="0.492361"/>
<line x1="708.982" y1="1115.01" x2="0.000854481" y2="1115.01" stroke="white" stroke-opacity="0.2" stroke-width="0.492361"/>
<line x1="708.982" y1="1128.8" x2="0.000854481" y2="1128.8" stroke="white" stroke-opacity="0.2" stroke-width="0.492361"/>
<line x1="708.982" y1="1142.59" x2="0.000854481" y2="1142.59" stroke="white" stroke-opacity="0.2" stroke-width="0.492361"/>
<line x1="708.982" y1="1329.7" x2="0.000854481" y2="1329.7" stroke="white" stroke-opacity="0.2" stroke-width="0.492361"/>
<line x1="708.982" y1="1343.48" x2="0.000854481" y2="1343.48" stroke="white" stroke-opacity="0.2" stroke-width="0.492361"/>
<line x1="708.982" y1="1357.27" x2="0.000854481" y2="1357.27" stroke="white" stroke-opacity="0.2" stroke-width="0.492361"/>
<line x1="708.982" y1="1371.06" x2="0.000854481" y2="1371.06" stroke="white" stroke-opacity="0.2" stroke-width="0.492361"/>
<line x1="708.982" y1="1558.17" x2="0.000854481" y2="1558.17" stroke="white" stroke-opacity="0.2" stroke-width="0.492361"/>
<line x1="708.982" y1="1571.95" x2="0.000854481" y2="1571.95" stroke="white" stroke-opacity="0.2" stroke-width="0.492361"/>
<line x1="708.982" y1="1585.74" x2="0.000854481" y2="1585.74" stroke="white" stroke-opacity="0.2" stroke-width="0.492361"/>
<line x1="708.982" y1="1599.52" x2="0.000854481" y2="1599.52" stroke="white" stroke-opacity="0.2" stroke-width="0.492361"/>
<line x1="708.982" y1="1783.33" x2="0.000854481" y2="1783.33" stroke="white" stroke-opacity="0.2" stroke-width="0.492361"/>
<line x1="708.982" y1="1797.12" x2="0.000854481" y2="1797.12" stroke="white" stroke-opacity="0.2" stroke-width="0.492361"/>
<line x1="708.982" y1="1810.9" x2="0.000854481" y2="1810.9" stroke="white" stroke-opacity="0.2" stroke-width="0.492361"/>
<line x1="708.982" y1="1998.01" x2="0.000854481" y2="1998.01" stroke="white" stroke-opacity="0.2" stroke-width="0.492361"/>
<line x1="708.982" y1="2011.8" x2="0.000854481" y2="2011.8" stroke="white" stroke-opacity="0.2" stroke-width="0.492361"/>
<line x1="708.982" y1="2025.59" x2="0.000854481" y2="2025.59" stroke="white" stroke-opacity="0.2" stroke-width="0.492361"/>
<line x1="708.982" y1="2039.37" x2="0.000854481" y2="2039.37" stroke="white" stroke-opacity="0.2" stroke-width="0.492361"/>
<line x1="708.982" y1="2226.48" x2="0.000854481" y2="2226.48" stroke="white" stroke-opacity="0.2" stroke-width="0.492361"/>
<line x1="708.982" y1="2240.27" x2="0.000854481" y2="2240.27" stroke="white" stroke-opacity="0.2" stroke-width="0.492361"/>
<line x1="708.982" y1="2254.05" x2="0.000854481" y2="2254.05" stroke="white" stroke-opacity="0.2" stroke-width="0.492361"/>
<line x1="708.982" y1="2267.84" x2="0.000854481" y2="2267.84" stroke="white" stroke-opacity="0.2" stroke-width="0.492361"/>
<line x1="708.982" y1="2454.95" x2="0.000854481" y2="2454.95" stroke="white" stroke-opacity="0.2" stroke-width="0.492361"/>
<line x1="708.982" y1="2468.74" x2="0.000854481" y2="2468.74" stroke="white" stroke-opacity="0.2" stroke-width="0.492361"/>
<line x1="708.982" y1="2482.52" x2="0.000854481" y2="2482.52" stroke="white" stroke-opacity="0.2" stroke-width="0.492361"/>
<line x1="708.982" y1="2496.31" x2="0.000854481" y2="2496.31" stroke="white" stroke-opacity="0.2" stroke-width="0.492361"/>
<line x1="708.982" y1="2683.42" x2="0.000854481" y2="2683.42" stroke="white" stroke-opacity="0.2" stroke-width="0.492361"/>
<line x1="708.982" y1="2697.2" x2="0.000854481" y2="2697.2" stroke="white" stroke-opacity="0.2" stroke-width="0.492361"/>
<line x1="708.982" y1="2710.99" x2="0.000854481" y2="2710.99" stroke="white" stroke-opacity="0.2" stroke-width="0.492361"/>
<line x1="708.982" y1="2724.78" x2="0.000854481" y2="2724.78" stroke="white" stroke-opacity="0.2" stroke-width="0.492361"/>
<line x1="708.982" y1="2911.89" x2="0.000854481" y2="2911.89" stroke="white" stroke-opacity="0.2" stroke-width="0.492361"/>
<line x1="708.982" y1="2925.67" x2="0.000854481" y2="2925.67" stroke="white" stroke-opacity="0.2" stroke-width="0.492361"/>
<line x1="708.982" y1="2939.46" x2="0.000854481" y2="2939.46" stroke="white" stroke-opacity="0.2" stroke-width="0.492361"/>
<line x1="708.982" y1="3126.57" x2="0.000854481" y2="3126.57" stroke="white" stroke-opacity="0.2" stroke-width="0.492361"/>
<line x1="708.982" y1="3140.36" x2="0.000854481" y2="3140.35" stroke="white" stroke-opacity="0.2" stroke-width="0.492361"/>
<line x1="708.982" y1="3154.14" x2="0.000854481" y2="3154.14" stroke="white" stroke-opacity="0.2" stroke-width="0.492361"/>
<line x1="708.982" y1="3167.93" x2="0.000854481" y2="3167.93" stroke="white" stroke-opacity="0.2" stroke-width="0.492361"/>
<line x1="708.982" y1="3355.04" x2="0.000854481" y2="3355.04" stroke="white" stroke-opacity="0.2" stroke-width="0.492361"/>
<line x1="708.982" y1="3368.82" x2="0.00109862" y2="3368.82" stroke="white" stroke-opacity="0.2" stroke-width="0.492361"/>
<line x1="708.982" y1="3382.61" x2="0.00109862" y2="3382.61" stroke="white" stroke-opacity="0.2" stroke-width="0.492361"/>
<line x1="708.982" y1="3396.4" x2="0.00109862" y2="3396.4" stroke="white" stroke-opacity="0.2" stroke-width="0.492361"/>
<line x1="708.982" y1="3583.51" x2="0.00109862" y2="3583.51" stroke="white" stroke-opacity="0.2" stroke-width="0.492361"/>
<line x1="708.982" y1="3597.29" x2="0.00109862" y2="3597.29" stroke="white" stroke-opacity="0.2" stroke-width="0.492361"/>
<line x1="708.982" y1="3611.08" x2="0.00134276" y2="3611.08" stroke="white" stroke-opacity="0.2" stroke-width="0.492361"/>
<line x1="708.982" y1="3624.86" x2="0.00134276" y2="3624.86" stroke="white" stroke-opacity="0.2" stroke-width="0.492361"/>
<line x1="708.982" y1="3811.97" x2="0.00134276" y2="3811.97" stroke="white" stroke-opacity="0.2" stroke-width="0.492361"/>
<line x1="708.982" y1="3825.76" x2="0.00134276" y2="3825.76" stroke="white" stroke-opacity="0.2" stroke-width="0.492361"/>
<line x1="708.982" y1="3839.55" x2="0.00134276" y2="3839.55" stroke="white" stroke-opacity="0.2" stroke-width="0.492361"/>
<line x1="708.982" y1="4026.66" x2="0.00134276" y2="4026.66" stroke="white" stroke-opacity="0.2" stroke-width="0.492361"/>
<line x1="708.982" y1="4040.44" x2="0.00134276" y2="4040.44" stroke="white" stroke-opacity="0.2" stroke-width="0.492361"/>
<line x1="708.982" y1="4054.23" x2="0.0015869" y2="4054.23" stroke="white" stroke-opacity="0.2" stroke-width="0.492361"/>
<line x1="708.982" y1="4068.01" x2="0.0015869" y2="4068.01" stroke="white" stroke-opacity="0.2" stroke-width="0.492361"/>
<line x1="708.982" y1="4255.12" x2="0.0015869" y2="4255.12" stroke="white" stroke-opacity="0.2" stroke-width="0.492361"/>
<line x1="708.982" y1="4268.91" x2="0.0015869" y2="4268.91" stroke="white" stroke-opacity="0.2" stroke-width="0.492361"/>
<line x1="708.982" y1="4282.7" x2="0.0015869" y2="4282.7" stroke="white" stroke-opacity="0.2" stroke-width="0.492361"/>
<line x1="708.982" y1="4296.48" x2="0.0015869" y2="4296.48" stroke="white" stroke-opacity="0.2" stroke-width="0.492361"/>
<line x1="708.982" y1="4483.59" x2="0.0015869" y2="4483.59" stroke="white" stroke-opacity="0.2" stroke-width="0.492361"/>
<line x1="708.983" y1="4497.38" x2="0.00183104" y2="4497.38" stroke="white" stroke-opacity="0.2" stroke-width="0.492361"/>
<line x1="708.983" y1="4511.16" x2="0.00183104" y2="4511.16" stroke="white" stroke-opacity="0.2" stroke-width="0.492361"/>
<line x1="708.983" y1="4524.95" x2="0.00183104" y2="4524.95" stroke="white" stroke-opacity="0.2" stroke-width="0.492361"/>
<line x1="708.983" y1="4712.06" x2="0.00183104" y2="4712.06" stroke="white" stroke-opacity="0.2" stroke-width="0.492361"/>
<line x1="708.983" y1="4725.85" x2="0.00183104" y2="4725.85" stroke="white" stroke-opacity="0.2" stroke-width="0.492361"/>
<line x1="708.983" y1="4739.63" x2="0.00207518" y2="4739.63" stroke="white" stroke-opacity="0.2" stroke-width="0.492361"/>
<line x1="708.983" y1="4753.42" x2="0.00207518" y2="4753.42" stroke="white" stroke-opacity="0.2" stroke-width="0.492361"/>
<line x1="708.983" y1="4940.53" x2="0.00207518" y2="4940.53" stroke="white" stroke-opacity="0.2" stroke-width="0.492361"/>
<line x1="708.983" y1="4954.31" x2="0.00207518" y2="4954.31" stroke="white" stroke-opacity="0.2" stroke-width="0.492361"/>
<line x1="708.983" y1="4968.1" x2="0.00207518" y2="4968.1" stroke="white" stroke-opacity="0.2" stroke-width="0.492361"/>
<line x1="708.983" y1="4981.89" x2="0.00207518" y2="4981.89" stroke="white" stroke-opacity="0.2" stroke-width="0.492361"/>
<line x1="708.983" y1="5165.7" x2="0.00207518" y2="5165.7" stroke="white" stroke-opacity="0.2" stroke-width="0.492361"/>
<line x1="708.983" y1="5179.48" x2="0.00207518" y2="5179.48" stroke="white" stroke-opacity="0.2" stroke-width="0.492361"/>
<line x1="708.983" y1="5193.27" x2="0.00207518" y2="5193.27" stroke="white" stroke-opacity="0.2" stroke-width="0.492361"/>
<line x1="708.983" y1="5380.38" x2="0.00231932" y2="5380.38" stroke="white" stroke-opacity="0.2" stroke-width="0.492361"/>
<line x1="708.983" y1="5394.16" x2="0.00231932" y2="5394.16" stroke="white" stroke-opacity="0.2" stroke-width="0.492361"/>
<line x1="708.983" y1="5407.95" x2="0.00231932" y2="5407.95" stroke="white" stroke-opacity="0.2" stroke-width="0.492361"/>
<line x1="708.983" y1="5421.74" x2="0.00231932" y2="5421.74" stroke="white" stroke-opacity="0.2" stroke-width="0.492361"/>
<line x1="708.983" y1="5608.85" x2="0.00231932" y2="5608.85" stroke="white" stroke-opacity="0.2" stroke-width="0.492361"/>
<line x1="708.983" y1="5622.63" x2="0.00231932" y2="5622.63" stroke="white" stroke-opacity="0.2" stroke-width="0.492361"/>
<line x1="708.983" y1="5636.42" x2="0.00231932" y2="5636.42" stroke="white" stroke-opacity="0.2" stroke-width="0.492361"/>
<line x1="708.983" y1="5650.2" x2="0.00231932" y2="5650.2" stroke="white" stroke-opacity="0.2" stroke-width="0.492361"/>
<line x1="708.983" y1="5837.31" x2="0.00231932" y2="5837.31" stroke="white" stroke-opacity="0.2" stroke-width="0.492361"/>
<line x1="708.983" y1="5851.1" x2="0.00231932" y2="5851.1" stroke="white" stroke-opacity="0.2" stroke-width="0.492361"/>
<line x1="708.983" y1="5864.89" x2="0.00231932" y2="5864.89" stroke="white" stroke-opacity="0.2" stroke-width="0.492361"/>
<line x1="708.983" y1="5878.67" x2="0.00231932" y2="5878.67" stroke="white" stroke-opacity="0.2" stroke-width="0.492361"/>
<line x1="708.983" y1="6065.78" x2="0.00256347" y2="6065.78" stroke="white" stroke-opacity="0.2" stroke-width="0.492361"/>
<line x1="708.983" y1="6079.57" x2="0.00256347" y2="6079.57" stroke="white" stroke-opacity="0.2" stroke-width="0.492361"/>
<line x1="708.983" y1="6093.35" x2="0.00256347" y2="6093.35" stroke="white" stroke-opacity="0.2" stroke-width="0.492361"/>
<line x1="708.983" y1="6107.14" x2="0.00256347" y2="6107.14" stroke="white" stroke-opacity="0.2" stroke-width="0.492361"/>
<line x1="708.983" y1="6294.25" x2="0.00256347" y2="6294.25" stroke="white" stroke-opacity="0.2" stroke-width="0.492361"/>
<line x1="708.983" y1="6308.04" x2="0.00256347" y2="6308.04" stroke="white" stroke-opacity="0.2" stroke-width="0.492361"/>
<line x1="708.983" y1="6321.82" x2="0.00256347" y2="6321.82" stroke="white" stroke-opacity="0.2" stroke-width="0.492361"/>
<line x1="708.983" y1="6508.93" x2="0.00256347" y2="6508.93" stroke="white" stroke-opacity="0.2" stroke-width="0.492361"/>
<line x1="708.984" y1="6522.72" x2="0.00280761" y2="6522.72" stroke="white" stroke-opacity="0.2" stroke-width="0.492361"/>
<line x1="708.984" y1="6536.5" x2="0.00280761" y2="6536.5" stroke="white" stroke-opacity="0.2" stroke-width="0.492361"/>
<line x1="708.984" y1="6550.29" x2="0.00280761" y2="6550.29" stroke="white" stroke-opacity="0.2" stroke-width="0.492361"/>
<line x1="708.984" y1="6737.4" x2="0.00280761" y2="6737.4" stroke="white" stroke-opacity="0.2" stroke-width="0.492361"/>
<line x1="708.984" y1="6751.19" x2="0.00280761" y2="6751.19" stroke="white" stroke-opacity="0.2" stroke-width="0.492361"/>
<line x1="708.984" y1="6764.97" x2="0.00280761" y2="6764.97" stroke="white" stroke-opacity="0.2" stroke-width="0.492361"/>
<line x1="708.984" y1="6778.76" x2="0.00280761" y2="6778.76" stroke="white" stroke-opacity="0.2" stroke-width="0.492361"/>
<line x1="708.984" y1="6792.55" x2="0.00305175" y2="6792.54" stroke="white" stroke-opacity="0.2" stroke-width="0.492361"/>
<line x1="708.984" y1="6806.33" x2="0.00305175" y2="6806.33" stroke="white" stroke-opacity="0.2" stroke-width="0.492361"/>
<line x1="708.984" y1="6820.12" x2="0.00305175" y2="6820.12" stroke="white" stroke-opacity="0.2" stroke-width="0.492361"/>
<line x1="708.984" y1="6833.9" x2="0.00305175" y2="6833.9" stroke="white" stroke-opacity="0.2" stroke-width="0.492361"/>
<line x1="708.984" y1="6847.69" x2="0.00329589" y2="6847.69" stroke="white" stroke-opacity="0.2" stroke-width="0.492361"/>
<line x1="708.984" y1="6861.48" x2="0.00329589" y2="6861.48" stroke="white" stroke-opacity="0.2" stroke-width="0.492361"/>
<line x1="708.984" y1="6875.26" x2="0.00329589" y2="6875.26" stroke="white" stroke-opacity="0.2" stroke-width="0.492361"/>
<line x1="708.984" y1="6889.05" x2="0.00329589" y2="6889.05" stroke="white" stroke-opacity="0.2" stroke-width="0.492361"/>
<line x1="708.984" y1="6902.83" x2="0.00329589" y2="6902.83" stroke="white" stroke-opacity="0.2" stroke-width="0.492361"/>
<line x1="708.984" y1="6916.62" x2="0.00329589" y2="6916.62" stroke="white" stroke-opacity="0.2" stroke-width="0.492361"/>
<line x1="708.984" y1="6930.41" x2="0.00329589" y2="6930.41" stroke="white" stroke-opacity="0.2" stroke-width="0.492361"/>
<line x1="708.984" y1="6944.19" x2="0.00354003" y2="6944.19" stroke="white" stroke-opacity="0.2" stroke-width="0.492361"/>
<line x1="708.984" y1="6957.98" x2="0.00354003" y2="6957.98" stroke="white" stroke-opacity="0.2" stroke-width="0.492361"/>
<line x1="708.984" y1="6971.76" x2="0.00354003" y2="6971.76" stroke="white" stroke-opacity="0.2" stroke-width="0.492361"/>
<line x1="708.984" y1="6985.55" x2="0.00354003" y2="6985.55" stroke="white" stroke-opacity="0.2" stroke-width="0.492361"/>
<line x1="708.984" y1="6999.34" x2="0.00354003" y2="6999.34" stroke="white" stroke-opacity="0.2" stroke-width="0.492361"/>
<line x1="708.984" y1="7013.12" x2="0.00354003" y2="7013.12" stroke="white" stroke-opacity="0.2" stroke-width="0.492361"/>
<line x1="708.984" y1="7026.91" x2="0.00354003" y2="7026.91" stroke="white" stroke-opacity="0.2" stroke-width="0.492361"/>
<line x1="708.984" y1="7040.69" x2="0.00354003" y2="7040.69" stroke="white" stroke-opacity="0.2" stroke-width="0.492361"/>
<line x1="708.984" y1="7054.48" x2="0.00354003" y2="7054.48" stroke="white" stroke-opacity="0.2" stroke-width="0.492361"/>
<line x1="708.984" y1="7068.27" x2="0.00354003" y2="7068.27" stroke="white" stroke-opacity="0.2" stroke-width="0.492361"/>
<line x1="708.984" y1="7082.05" x2="0.00354003" y2="7082.05" stroke="white" stroke-opacity="0.2" stroke-width="0.492361"/>
<line x1="708.984" y1="7095.84" x2="0.00354003" y2="7095.84" stroke="white" stroke-opacity="0.2" stroke-width="0.492361"/>
<line x1="708.984" y1="7109.63" x2="0.00354003" y2="7109.62" stroke="white" stroke-opacity="0.2" stroke-width="0.492361"/>
<line x1="708.985" y1="7123.41" x2="0.00378417" y2="7123.41" stroke="white" stroke-opacity="0.2" stroke-width="0.492361"/>
<line x1="708.985" y1="7137.2" x2="0.00378417" y2="7137.2" stroke="white" stroke-opacity="0.2" stroke-width="0.492361"/>
<line x1="708.985" y1="7150.98" x2="0.00378417" y2="7150.98" stroke="white" stroke-opacity="0.2" stroke-width="0.492361"/>
<line x1="708.985" y1="7164.77" x2="0.00378417" y2="7164.77" stroke="white" stroke-opacity="0.2" stroke-width="0.492361"/>
<line x1="708.985" y1="7178.56" x2="0.00378417" y2="7178.56" stroke="white" stroke-opacity="0.2" stroke-width="0.492361"/>
<line x1="708.985" y1="7192.34" x2="0.00378417" y2="7192.34" stroke="white" stroke-opacity="0.2" stroke-width="0.492361"/>
<line x1="708.985" y1="7206.13" x2="0.00378417" y2="7206.13" stroke="white" stroke-opacity="0.2" stroke-width="0.492361"/>
<line x1="708.985" y1="7219.91" x2="0.00378417" y2="7219.91" stroke="white" stroke-opacity="0.2" stroke-width="0.492361"/>
<line x1="708.985" y1="7233.7" x2="0.00402831" y2="7233.7" stroke="white" stroke-opacity="0.2" stroke-width="0.492361"/>
<line x1="708.985" y1="7247.49" x2="0.00402831" y2="7247.49" stroke="white" stroke-opacity="0.2" stroke-width="0.492361"/>
<line x1="708.985" y1="7261.27" x2="0.00402831" y2="7261.27" stroke="white" stroke-opacity="0.2" stroke-width="0.492361"/>
<line x1="708.985" y1="7275.06" x2="0.00402831" y2="7275.06" stroke="white" stroke-opacity="0.2" stroke-width="0.492361"/>
<line x1="708.985" y1="7288.84" x2="0.00402831" y2="7288.84" stroke="white" stroke-opacity="0.2" stroke-width="0.492361"/>
<line x1="708.985" y1="7302.63" x2="0.00402831" y2="7302.63" stroke="white" stroke-opacity="0.2" stroke-width="0.492361"/>
<line x1="708.985" y1="7316.42" x2="0.00402831" y2="7316.42" stroke="white" stroke-opacity="0.2" stroke-width="0.492361"/>
<line x1="708.985" y1="7330.2" x2="0.00402831" y2="7330.2" stroke="white" stroke-opacity="0.2" stroke-width="0.492361"/>
<line x1="708.985" y1="7343.99" x2="0.00427245" y2="7343.99" stroke="white" stroke-opacity="0.2" stroke-width="0.492361"/>
<line x1="708.985" y1="7357.78" x2="0.00427245" y2="7357.78" stroke="white" stroke-opacity="0.2" stroke-width="0.492361"/>
<line x1="708.985" y1="7371.56" x2="0.00427245" y2="7371.56" stroke="white" stroke-opacity="0.2" stroke-width="0.492361"/>
<line x1="708.985" y1="7385.35" x2="0.00427245" y2="7385.35" stroke="white" stroke-opacity="0.2" stroke-width="0.492361"/>
<line x1="708.985" y1="7399.13" x2="0.00451659" y2="7399.13" stroke="white" stroke-opacity="0.2" stroke-width="0.492361"/>
<line x1="708.985" y1="7412.92" x2="0.00451659" y2="7412.92" stroke="white" stroke-opacity="0.2" stroke-width="0.492361"/>
<line x1="708.985" y1="7426.71" x2="0.00451659" y2="7426.71" stroke="white" stroke-opacity="0.2" stroke-width="0.492361"/>
<line x1="708.985" y1="7440.49" x2="0.00451659" y2="7440.49" stroke="white" stroke-opacity="0.2" stroke-width="0.492361"/>
<line x1="708.985" y1="7454.28" x2="0.00451659" y2="7454.28" stroke="white" stroke-opacity="0.2" stroke-width="0.492361"/>
<line x1="708.985" y1="7468.06" x2="0.00451659" y2="7468.06" stroke="white" stroke-opacity="0.2" stroke-width="0.492361"/>
<line x1="708.985" y1="7481.85" x2="0.00451659" y2="7481.85" stroke="white" stroke-opacity="0.2" stroke-width="0.492361"/>
<line x1="708.985" y1="7495.64" x2="0.00451659" y2="7495.64" stroke="white" stroke-opacity="0.2" stroke-width="0.492361"/>
<line x1="708.986" y1="7509.42" x2="0.00476073" y2="7509.42" stroke="white" stroke-opacity="0.2" stroke-width="0.492361"/>
<line x1="708.986" y1="7523.21" x2="0.00476073" y2="7523.21" stroke="white" stroke-opacity="0.2" stroke-width="0.492361"/>
<line x1="708.986" y1="7536.99" x2="0.00476073" y2="7536.99" stroke="white" stroke-opacity="0.2" stroke-width="0.492361"/>
<line x1="708.986" y1="7550.78" x2="0.00476073" y2="7550.78" stroke="white" stroke-opacity="0.2" stroke-width="0.492361"/>
<line x1="708.986" y1="7564.57" x2="0.00476073" y2="7564.57" stroke="white" stroke-opacity="0.2" stroke-width="0.492361"/>
<line x1="708.986" y1="7578.35" x2="0.00476073" y2="7578.35" stroke="white" stroke-opacity="0.2" stroke-width="0.492361"/>
<line x1="708.986" y1="7592.14" x2="0.00476073" y2="7592.14" stroke="white" stroke-opacity="0.2" stroke-width="0.492361"/>
<line x1="708.986" y1="7605.92" x2="0.00476073" y2="7605.92" stroke="white" stroke-opacity="0.2" stroke-width="0.492361"/>
<line x1="708.986" y1="7619.71" x2="0.00476073" y2="7619.71" stroke="white" stroke-opacity="0.2" stroke-width="0.492361"/>
<line x1="708.986" y1="7633.5" x2="0.00476073" y2="7633.5" stroke="white" stroke-opacity="0.2" stroke-width="0.492361"/>
<line x1="708.986" y1="7647.28" x2="0.00476073" y2="7647.28" stroke="white" stroke-opacity="0.2" stroke-width="0.492361"/>
<line x1="708.986" y1="7661.07" x2="0.00500487" y2="7661.07" stroke="white" stroke-opacity="0.2" stroke-width="0.492361"/>
<line x1="708.986" y1="7674.86" x2="0.00500487" y2="7674.86" stroke="white" stroke-opacity="0.2" stroke-width="0.492361"/>
<line x1="708.986" y1="7688.64" x2="0.00500487" y2="7688.64" stroke="white" stroke-opacity="0.2" stroke-width="0.492361"/>
<line x1="708.986" y1="7702.43" x2="0.00500487" y2="7702.43" stroke="white" stroke-opacity="0.2" stroke-width="0.492361"/>
<line x1="708.986" y1="7716.21" x2="0.00500487" y2="7716.21" stroke="white" stroke-opacity="0.2" stroke-width="0.492361"/>
<line x1="708.986" y1="7730" x2="0.00500487" y2="7730" stroke="white" stroke-opacity="0.2" stroke-width="0.492361"/>
<line x1="708.986" y1="7743.79" x2="0.00500487" y2="7743.79" stroke="white" stroke-opacity="0.2" stroke-width="0.492361"/>
<line x1="708.986" y1="7757.57" x2="0.00500487" y2="7757.57" stroke="white" stroke-opacity="0.2" stroke-width="0.492361"/>
<line x1="708.986" y1="7771.36" x2="0.00500487" y2="7771.36" stroke="white" stroke-opacity="0.2" stroke-width="0.492361"/>
<line x1="708.986" y1="7785.14" x2="0.00524901" y2="7785.14" stroke="white" stroke-opacity="0.2" stroke-width="0.492361"/>
<line x1="708.986" y1="7798.93" x2="0.00524901" y2="7798.93" stroke="white" stroke-opacity="0.2" stroke-width="0.492361"/>
<line x1="708.986" y1="7812.72" x2="0.00524901" y2="7812.72" stroke="white" stroke-opacity="0.2" stroke-width="0.492361"/>
<line x1="708.986" y1="7826.5" x2="0.00524901" y2="7826.5" stroke="white" stroke-opacity="0.2" stroke-width="0.492361"/>
<line x1="708.986" y1="7840.29" x2="0.00524901" y2="7840.29" stroke="white" stroke-opacity="0.2" stroke-width="0.492361"/>
<line x1="708.986" y1="7854.07" x2="0.00524901" y2="7854.07" stroke="white" stroke-opacity="0.2" stroke-width="0.492361"/>
<line x1="708.986" y1="7867.86" x2="0.00524901" y2="7867.86" stroke="white" stroke-opacity="0.2" stroke-width="0.492361"/>
<line x1="708.986" y1="7881.65" x2="0.00524901" y2="7881.65" stroke="white" stroke-opacity="0.2" stroke-width="0.492361"/>
<line x1="708.986" y1="7895.43" x2="0.00549315" y2="7895.43" stroke="white" stroke-opacity="0.2" stroke-width="0.492361"/>
<line x1="708.986" y1="7909.22" x2="0.00549315" y2="7909.22" stroke="white" stroke-opacity="0.2" stroke-width="0.492361"/>
<line x1="708.986" y1="7923" x2="0.00549315" y2="7923" stroke="white" stroke-opacity="0.2" stroke-width="0.492361"/>
<line x1="708.986" y1="7936.79" x2="0.00549315" y2="7936.79" stroke="white" stroke-opacity="0.2" stroke-width="0.492361"/>
<line x1="708.987" y1="7950.58" x2="0.00573729" y2="7950.58" stroke="white" stroke-opacity="0.2" stroke-width="0.492361"/>
<line x1="708.987" y1="7964.36" x2="0.00573729" y2="7964.36" stroke="white" stroke-opacity="0.2" stroke-width="0.492361"/>
<line x1="708.987" y1="7978.15" x2="0.00573729" y2="7978.15" stroke="white" stroke-opacity="0.2" stroke-width="0.492361"/>
<line x1="708.987" y1="7991.94" x2="0.00573729" y2="7991.94" stroke="white" stroke-opacity="0.2" stroke-width="0.492361"/>
<line x1="708.987" y1="8005.72" x2="0.00573729" y2="8005.72" stroke="white" stroke-opacity="0.2" stroke-width="0.492361"/>
<line x1="708.987" y1="8019.51" x2="0.00573729" y2="8019.51" stroke="white" stroke-opacity="0.2" stroke-width="0.492361"/>
<line x1="708.987" y1="8033.29" x2="0.00573729" y2="8033.29" stroke="white" stroke-opacity="0.2" stroke-width="0.492361"/>
<line x1="708.987" y1="8047.08" x2="0.00573729" y2="8047.08" stroke="white" stroke-opacity="0.2" stroke-width="0.492361"/>
<line x1="708.987" y1="8060.87" x2="0.00573729" y2="8060.87" stroke="white" stroke-opacity="0.2" stroke-width="0.492361"/>
<line x1="708.987" y1="8074.65" x2="0.00573729" y2="8074.65" stroke="white" stroke-opacity="0.2" stroke-width="0.492361"/>
<line x1="708.987" y1="8088.44" x2="0.00573729" y2="8088.44" stroke="white" stroke-opacity="0.2" stroke-width="0.492361"/>
<line x1="708.987" y1="8102.22" x2="0.00573729" y2="8102.22" stroke="white" stroke-opacity="0.2" stroke-width="0.492361"/>
<line x1="708.987" y1="8116.01" x2="0.00573729" y2="8116.01" stroke="white" stroke-opacity="0.2" stroke-width="0.492361"/>
<line x1="708.987" y1="8129.8" x2="0.00573729" y2="8129.8" stroke="white" stroke-opacity="0.2" stroke-width="0.492361"/>
<line x1="708.987" y1="8143.58" x2="0.00573729" y2="8143.58" stroke="white" stroke-opacity="0.2" stroke-width="0.492361"/>
<line x1="708.987" y1="8157.37" x2="0.00573729" y2="8157.37" stroke="white" stroke-opacity="0.2" stroke-width="0.492361"/>
<line x1="708.987" y1="8171.16" x2="0.00598143" y2="8171.16" stroke="white" stroke-opacity="0.2" stroke-width="0.492361"/>
<line x1="708.987" y1="8184.94" x2="0.00598143" y2="8184.94" stroke="white" stroke-opacity="0.2" stroke-width="0.492361"/>
<line x1="708.987" y1="8198.73" x2="0.00598143" y2="8198.73" stroke="white" stroke-opacity="0.2" stroke-width="0.492361"/>
<line x1="708.987" y1="8212.51" x2="0.00622557" y2="8212.51" stroke="white" stroke-opacity="0.2" stroke-width="0.492361"/>
<line x1="708.987" y1="8226.3" x2="0.00622557" y2="8226.3" stroke="white" stroke-opacity="0.2" stroke-width="0.492361"/>
<line x1="708.987" y1="8240.09" x2="0.00622557" y2="8240.09" stroke="white" stroke-opacity="0.2" stroke-width="0.492361"/>
<line x1="708.987" y1="8253.87" x2="0.00622557" y2="8253.87" stroke="white" stroke-opacity="0.2" stroke-width="0.492361"/>
<line x1="708.987" y1="8267.66" x2="0.00622557" y2="8267.66" stroke="white" stroke-opacity="0.2" stroke-width="0.492361"/>
<line x1="708.987" y1="8281.44" x2="0.00622557" y2="8281.44" stroke="white" stroke-opacity="0.2" stroke-width="0.492361"/>
<line x1="708.987" y1="8295.23" x2="0.00622557" y2="8295.23" stroke="white" stroke-opacity="0.2" stroke-width="0.492361"/>
<line x1="708.987" y1="8309.02" x2="0.00646972" y2="8309.02" stroke="white" stroke-opacity="0.2" stroke-width="0.492361"/>
<line x1="708.987" y1="8322.8" x2="0.00646972" y2="8322.8" stroke="white" stroke-opacity="0.2" stroke-width="0.492361"/>
<line x1="708.987" y1="8336.59" x2="0.00646972" y2="8336.59" stroke="white" stroke-opacity="0.2" stroke-width="0.492361"/>
<line x1="708.987" y1="8350.37" x2="0.00646972" y2="8350.37" stroke="white" stroke-opacity="0.2" stroke-width="0.492361"/>
<line x1="708.987" y1="8364.16" x2="0.00646972" y2="8364.16" stroke="white" stroke-opacity="0.2" stroke-width="0.492361"/>
<line x1="708.987" y1="8377.95" x2="0.00646972" y2="8377.95" stroke="white" stroke-opacity="0.2" stroke-width="0.492361"/>
<line x1="708.987" y1="8391.73" x2="0.00646972" y2="8391.73" stroke="white" stroke-opacity="0.2" stroke-width="0.492361"/>
<line x1="708.987" y1="8405.52" x2="0.00646972" y2="8405.52" stroke="white" stroke-opacity="0.2" stroke-width="0.492361"/>
<line x1="708.987" y1="8419.3" x2="0.00646972" y2="8419.3" stroke="white" stroke-opacity="0.2" stroke-width="0.492361"/>
<line x1="708.988" y1="8433.09" x2="0.00671386" y2="8433.09" stroke="white" stroke-opacity="0.2" stroke-width="0.492361"/>
<line x1="708.988" y1="8446.88" x2="0.00671386" y2="8446.88" stroke="white" stroke-opacity="0.2" stroke-width="0.492361"/>
<line x1="708.988" y1="8460.66" x2="0.00671386" y2="8460.66" stroke="white" stroke-opacity="0.2" stroke-width="0.492361"/>
<line x1="708.988" y1="8474.45" x2="0.00671386" y2="8474.45" stroke="white" stroke-opacity="0.2" stroke-width="0.492361"/>
<line x1="708.988" y1="8488.24" x2="0.006958" y2="8488.24" stroke="white" stroke-opacity="0.2" stroke-width="0.492361"/>
<line x1="708.988" y1="8502.02" x2="0.006958" y2="8502.02" stroke="white" stroke-opacity="0.2" stroke-width="0.492361"/>
<line x1="708.988" y1="8515.81" x2="0.006958" y2="8515.81" stroke="white" stroke-opacity="0.2" stroke-width="0.492361"/>
<line x1="708.988" y1="8529.59" x2="0.006958" y2="8529.59" stroke="white" stroke-opacity="0.2" stroke-width="0.492361"/>
<line x1="708.988" y1="8543.38" x2="0.006958" y2="8543.38" stroke="white" stroke-opacity="0.2" stroke-width="0.492361"/>
<line x1="708.988" y1="8557.17" x2="0.006958" y2="8557.17" stroke="white" stroke-opacity="0.2" stroke-width="0.492361"/>
<line x1="708.988" y1="8570.95" x2="0.006958" y2="8570.95" stroke="white" stroke-opacity="0.2" stroke-width="0.492361"/>
<line x1="708.988" y1="8584.74" x2="0.006958" y2="8584.74" stroke="white" stroke-opacity="0.2" stroke-width="0.492361"/>
<line x1="708.988" y1="8598.52" x2="0.006958" y2="8598.52" stroke="white" stroke-opacity="0.2" stroke-width="0.492361"/>
<line x1="708.988" y1="8612.31" x2="0.006958" y2="8612.31" stroke="white" stroke-opacity="0.2" stroke-width="0.492361"/>
</g>
</svg>
