<svg width="644" height="181" viewBox="0 0 644 181" fill="none" xmlns="http://www.w3.org/2000/svg">
<path opacity="0.02" d="M231.381 81.7867L262.593 38.3623L326.713 38.5374L326.929 82.2445L231.381 81.7867Z" fill="url(#paint0_linear_342_1676)"/>
<path opacity="0.02" d="M75.1077 37.9042L135.067 0.000488281H214.725L170.682 38.5371L75.1077 37.9042Z" fill="url(#paint1_linear_342_1676)"/>
<path opacity="0.02" d="M72.1185 126.975L124.605 81.7871H231.382L199.577 126.975H72.1185Z" fill="url(#paint2_linear_342_1676)"/>
<path opacity="0.02" d="M496.869 37.9048L408.728 38.5376L436.089 81.7869H538.355L496.869 37.9048Z" fill="url(#paint3_linear_342_1676)"/>
<path opacity="0.02" d="M437.462 81.7871L326.929 82.2449L327.279 126.975H465.846L437.462 81.7871Z" fill="url(#paint4_linear_342_1676)"/>
<path opacity="0.02" d="M496.869 37.9042L459.329 0.000488281H535.271L590.006 37.9042H496.869Z" fill="url(#paint5_linear_342_1676)"/>
<path d="M212.463 1.03801C212.584 1.18612 167.948 41.4328 112.823 90.9702C57.6975 140.508 12.7112 180.539 12.5766 180.391C12.4419 180.243 57.0916 139.996 112.298 90.4451C167.504 40.8942 212.329 0.889894 212.463 1.03801Z" fill="url(#paint6_linear_342_1676)"/>
<path d="M132.199 1.03765C132.293 1.19922 102.791 20.4406 66.2881 44.0177C29.7847 67.5948 0.108013 86.5668 0.000294049 86.4052C-0.107425 86.2436 29.3942 67.0023 65.9784 43.4252C102.563 19.8482 132.091 0.876067 132.199 1.03765Z" fill="url(#paint7_linear_342_1676)"/>
<path d="M283.666 7.47425C283.827 7.59543 256.871 46.1724 223.464 93.6497C190.058 141.127 162.872 179.516 162.697 179.408C162.522 179.3 189.479 140.723 222.899 93.2323C256.319 45.7416 283.504 7.39346 283.666 7.47425Z" fill="url(#paint8_linear_342_1676)"/>
<path d="M458.831 0.000824935C458.979 -0.133824 498.929 40.1397 548.076 89.9465C597.223 139.753 636.945 180.256 636.824 180.39C636.702 180.525 596.739 140.265 547.578 90.4447C498.418 40.6245 458.696 0.135474 458.831 0.000824935Z" fill="url(#paint9_linear_342_1676)"/>
<path d="M535.271 0.00115278C535.392 -0.160426 559.696 16.6842 589.575 37.6087C619.454 58.5331 643.583 75.647 643.435 75.8086C643.287 75.9702 619.023 59.1256 589.144 38.1876C559.266 17.2497 535.163 0.162732 535.271 0.00115278Z" fill="url(#paint10_linear_342_1676)"/>
<path d="M385.555 0.000703721C385.716 -0.107016 411.394 40.1935 442.888 90.0002C474.383 139.807 499.805 180.296 499.643 180.39C499.482 180.484 473.804 140.197 442.296 90.3772C410.788 40.557 385.38 0.0949581 385.555 0.000703721Z" fill="url(#paint11_linear_342_1676)"/>
<path d="M326.713 3.35352C326.915 3.35352 327.198 42.9942 327.346 91.8719C327.494 140.75 327.467 180.404 327.279 180.404C327.09 180.404 326.794 140.776 326.646 91.8719C326.498 42.9673 326.525 3.35352 326.713 3.35352Z" fill="url(#paint12_linear_342_1676)"/>
<path d="M640.419 38.3628C640.419 38.5648 497.839 38.7129 322.014 38.7129C146.189 38.7129 3.58203 38.5648 3.58203 38.3628C3.58203 38.1608 146.122 38.0127 322.014 38.0127C497.906 38.0127 640.419 38.1743 640.419 38.3628Z" fill="url(#paint13_linear_342_1676)"/>
<path d="M636.824 81.7868C636.824 81.9888 494.971 82.1369 320.021 82.1369C145.071 82.1369 3.15112 81.9888 3.15112 81.7868C3.15112 81.5848 145.004 81.4502 320.021 81.4502C495.038 81.4502 636.824 81.5983 636.824 81.7868Z" fill="url(#paint14_linear_342_1676)"/>
<path d="M640.809 126.976C640.809 127.164 498.081 127.326 322.014 127.326C145.947 127.326 3.15112 127.231 3.15112 126.976C3.15112 126.72 145.879 126.625 321.987 126.625C498.095 126.625 640.809 126.774 640.809 126.976Z" fill="url(#paint15_linear_342_1676)"/>
<defs>
<linearGradient id="paint0_linear_342_1676" x1="349.174" y1="4.35363" x2="316.399" y2="156.393" gradientUnits="userSpaceOnUse">
<stop offset="0.365638" stop-color="#3F37C9"/>
<stop offset="1" stop-color="#4CC9F0"/>
</linearGradient>
<linearGradient id="paint1_linear_342_1676" x1="247.232" y1="-29.8654" x2="229.429" y2="107.551" gradientUnits="userSpaceOnUse">
<stop offset="0.365638" stop-color="#3F37C9"/>
<stop offset="1" stop-color="#4CC9F0"/>
</linearGradient>
<linearGradient id="paint2_linear_342_1676" x1="268.462" y1="46.7662" x2="247.022" y2="207.751" gradientUnits="userSpaceOnUse">
<stop offset="0.365638" stop-color="#3F37C9"/>
<stop offset="1" stop-color="#4CC9F0"/>
</linearGradient>
<linearGradient id="paint3_linear_342_1676" x1="568.535" y1="3.89611" x2="543.876" y2="159.082" gradientUnits="userSpaceOnUse">
<stop offset="0.365638" stop-color="#3F37C9"/>
<stop offset="1" stop-color="#4CC9F0"/>
</linearGradient>
<linearGradient id="paint4_linear_342_1676" x1="498.19" y1="46.7662" x2="473.744" y2="206.874" gradientUnits="userSpaceOnUse">
<stop offset="0.365638" stop-color="#3F37C9"/>
<stop offset="1" stop-color="#4CC9F0"/>
</linearGradient>
<linearGradient id="paint5_linear_342_1676" x1="620.431" y1="-29.3749" x2="602.061" y2="105.553" gradientUnits="userSpaceOnUse">
<stop offset="0.365638" stop-color="#3F37C9"/>
<stop offset="1" stop-color="#4CC9F0"/>
</linearGradient>
<linearGradient id="paint6_linear_342_1676" x1="119.391" y1="-323.69" x2="50.1439" y2="171.672" gradientUnits="userSpaceOnUse">
<stop stop-color="white"/>
<stop offset="0.966118" stop-color="white" stop-opacity="0"/>
</linearGradient>
<linearGradient id="paint7_linear_342_1676" x1="70.6439" y1="-153.529" x2="46.701" y2="84.4546" gradientUnits="userSpaceOnUse">
<stop stop-color="white"/>
<stop offset="0.966118" stop-color="white" stop-opacity="0"/>
</linearGradient>
<linearGradient id="paint8_linear_342_1676" x1="227.34" y1="-303.82" x2="125.145" y2="157.7" gradientUnits="userSpaceOnUse">
<stop stop-color="white"/>
<stop offset="0.966118" stop-color="white" stop-opacity="0"/>
</linearGradient>
<linearGradient id="paint9_linear_342_1676" x1="553.946" y1="-326.604" x2="475.693" y2="169.001" gradientUnits="userSpaceOnUse">
<stop stop-color="white"/>
<stop offset="0.966118" stop-color="white" stop-opacity="0"/>
</linearGradient>
<linearGradient id="paint10_linear_342_1676" x1="593.071" y1="-137.257" x2="570.036" y2="73.7005" gradientUnits="userSpaceOnUse">
<stop stop-color="white"/>
<stop offset="0.966118" stop-color="white" stop-opacity="0"/>
</linearGradient>
<linearGradient id="paint11_linear_342_1676" x1="446.521" y1="-326.603" x2="328.553" y2="152.297" gradientUnits="userSpaceOnUse">
<stop stop-color="white"/>
<stop offset="0.966118" stop-color="white" stop-opacity="0"/>
</linearGradient>
<linearGradient id="paint12_linear_342_1676" x1="327.027" y1="-317.204" x2="310.952" y2="-316.685" gradientUnits="userSpaceOnUse">
<stop stop-color="white"/>
<stop offset="0.966118" stop-color="white" stop-opacity="0"/>
</linearGradient>
<linearGradient id="paint13_linear_342_1676" x1="343.892" y1="36.7449" x2="343.891" y2="38.7166" gradientUnits="userSpaceOnUse">
<stop stop-color="white"/>
<stop offset="0.966118" stop-color="white" stop-opacity="0"/>
</linearGradient>
<linearGradient id="paint14_linear_342_1676" x1="341.77" y1="80.2069" x2="341.77" y2="82.1406" gradientUnits="userSpaceOnUse">
<stop stop-color="white"/>
<stop offset="0.966118" stop-color="white" stop-opacity="0"/>
</linearGradient>
<linearGradient id="paint15_linear_342_1676" x1="343.9" y1="125.358" x2="343.899" y2="127.329" gradientUnits="userSpaceOnUse">
<stop stop-color="white"/>
<stop offset="0.966118" stop-color="white" stop-opacity="0"/>
</linearGradient>
</defs>
</svg>
