<svg width="146" height="35" viewBox="0 0 146 35" fill="none" xmlns="http://www.w3.org/2000/svg">
<path d="M118.63 0H145.852V7.3204H118.954V27.0537H145.852V33.7375H118.63C113.185 33.7375 111.824 29.706 111.824 27.6902V6.04729C111.824 1.20946 116.361 0 118.63 0Z" fill="white"/>
<path d="M0.0197754 28.6451V0.318359H7.14932V27.0537H34.3712V33.7376H5.2049C1.0568 33.7376 0.0197754 30.3426 0.0197754 28.6451Z" fill="white"/>
<path d="M37.2878 15.5957V0.318359H44.4174V13.3678H64.1856V0.318359H71.3152V28.6451C70.2782 32.2099 67.2103 33.5254 65.806 33.7376H37.2878V26.7355H64.1856V20.3699H42.473C39.2323 20.3699 37.2878 17.5054 37.2878 15.5957Z" fill="white"/>
<path d="M82.0098 33.7371H74.5562V5.41038C74.5562 2.10028 75.2043 1.27276 75.5284 0.954447C77.8617 -0.827912 80.6055 1.06054 81.6857 2.22756L101.454 21.3243V0.31789H108.583V30.2361C108.583 34.31 104.695 34.692 103.398 33.7371L82.0098 12.7307V33.7371Z" fill="white"/>
</svg>
