<svg width="24" height="24" viewBox="0 0 24 24" fill="none" xmlns="http://www.w3.org/2000/svg">
<path fill-rule="evenodd" clip-rule="evenodd" d="M2.96792e-07 2.42155C2.96792e-07 1.91192 0.21125 1.42317 0.587278 1.06281C0.963305 0.70245 1.47331 0.500003 2.00509 0.500003H21.9927C22.2563 0.49959 22.5173 0.548996 22.7609 0.64539C23.0045 0.741785 23.2258 0.883276 23.4123 1.06176C23.5987 1.24025 23.7466 1.45223 23.8475 1.68556C23.9483 1.91889 24.0001 2.16899 24 2.42155V21.5764C24.0003 21.829 23.9486 22.0791 23.8479 22.3126C23.7472 22.546 23.5994 22.7582 23.4131 22.9368C23.2268 23.1155 23.0055 23.2572 22.762 23.3538C22.5184 23.4505 22.2574 23.5001 21.9938 23.5H2.00509C1.74169 23.5 1.48086 23.4503 1.23752 23.3536C0.994184 23.257 0.773096 23.1154 0.586892 22.9368C0.400688 22.7583 0.253017 22.5463 0.152316 22.3131C0.0516145 22.0798 -0.000143013 21.8298 2.96792e-07 21.5774V2.42155ZM9.49964 9.26927H12.7495V10.8333C13.2185 9.93418 14.4185 9.125 16.2218 9.125C19.6789 9.125 20.4982 10.9159 20.4982 14.2017V20.2884H16.9996V14.9503C16.9996 13.0789 16.5305 12.023 15.3393 12.023C13.6865 12.023 12.9993 13.1615 12.9993 14.9503V20.2884H9.49964V9.26927ZM3.49964 20.1451H6.99927V9.125H3.49964V20.1441V20.1451ZM7.5 5.53073C7.5066 5.81789 7.45328 6.10342 7.34317 6.37056C7.23306 6.6377 7.06838 6.88108 6.8588 7.0864C6.64921 7.29172 6.39894 7.45486 6.12268 7.56624C5.84641 7.67761 5.54972 7.73498 5.25 7.73498C4.95028 7.73498 4.65359 7.67761 4.37732 7.56624C4.10106 7.45486 3.85079 7.29172 3.6412 7.0864C3.43162 6.88108 3.26694 6.6377 3.15683 6.37056C3.04672 6.10342 2.9934 5.81789 3 5.53073C3.01295 4.96708 3.25569 4.43069 3.67624 4.03645C4.09678 3.6422 4.6617 3.42144 5.25 3.42144C5.8383 3.42144 6.40322 3.6422 6.82376 4.03645C7.24431 4.43069 7.48705 4.96708 7.5 5.53073Z" fill="white"/>
</svg>
