<svg width="25" height="24" viewBox="0 0 25 24" fill="none" xmlns="http://www.w3.org/2000/svg">
<path fill-rule="evenodd" clip-rule="evenodd" d="M17.0165 1.43168C15.6254 0.83211 14.0924 0.5 12.4818 0.5C6.1406 0.5 1 5.6487 1 11.9999C1 18.3512 6.1406 23.4999 12.4818 23.4999C18.7464 23.4999 23.8392 18.4749 23.9614 12.2298H21.0902C20.9684 16.8869 17.1609 20.6247 12.4818 20.6247C7.72585 20.6247 3.8704 16.7632 3.8704 11.9998C3.8704 7.23632 7.72585 3.3748 12.4818 3.3748C14.1458 3.3748 15.6996 3.84751 17.0165 4.66617V1.43168Z" fill="white"/>
<path d="M17.0165 1.43168H17.2536V1.27568L17.1104 1.21393L17.0165 1.43168ZM23.9614 12.2298L24.1985 12.2344L24.2032 11.9927H23.9614V12.2298ZM21.0902 12.2298V11.9927H20.8592L20.8531 12.2236L21.0902 12.2298ZM17.0165 4.66617L16.8913 4.86754L17.2536 5.09276V4.66617H17.0165ZM17.1104 1.21393C15.6902 0.601823 14.1252 0.262884 12.4818 0.262884V0.737116C14.0595 0.737116 15.5607 1.0624 16.9227 1.64943L17.1104 1.21393ZM12.4818 0.262884C6.00929 0.262884 0.762884 5.5181 0.762884 11.9999H1.23712C1.23712 5.7793 6.2719 0.737116 12.4818 0.737116V0.262884ZM0.762884 11.9999C0.762884 18.4818 6.00929 23.737 12.4818 23.737V23.2628C6.2719 23.2628 1.23712 18.2206 1.23712 11.9999H0.762884ZM12.4818 23.737C18.8762 23.737 24.0738 18.6081 24.1985 12.2344L23.7244 12.2251C23.6046 18.3418 18.6167 23.2628 12.4818 23.2628V23.737ZM23.9614 11.9927H21.0902V12.4669H23.9614V11.9927ZM12.4818 20.8618C17.2901 20.8618 21.2021 17.0209 21.3272 12.236L20.8531 12.2236C20.7347 16.7529 17.0317 20.3876 12.4818 20.3876V20.8618ZM3.63328 11.9998C3.63328 16.8938 7.59454 20.8618 12.4818 20.8618V20.3876C7.85715 20.3876 4.10751 16.6326 4.10751 11.9998H3.63328ZM12.4818 3.13768C7.59454 3.13768 3.63328 7.10572 3.63328 11.9998H4.10751C4.10751 7.36693 7.85715 3.61191 12.4818 3.61191V3.13768ZM17.1417 4.46479C15.7883 3.62346 14.1913 3.13768 12.4818 3.13768V3.61191C14.1003 3.61191 15.6108 4.07156 16.8913 4.86754L17.1417 4.46479ZM17.2536 4.66617V1.43168H16.7794V4.66617H17.2536Z" fill="black"/>
</svg>
