<svg width="25" height="26" viewBox="0 0 25 26" fill="none" xmlns="http://www.w3.org/2000/svg">
<path fill-rule="evenodd" clip-rule="evenodd" d="M23.8942 14.2727C23.2618 20.025 18.3936 24.4999 12.4818 24.4999C6.1406 24.4999 1 19.3512 1 12.9999C1 6.6487 6.1406 1.5 12.4818 1.5C15.5119 1.5 18.2678 2.67556 20.3197 4.59617H16.8442V5.56185C15.5649 4.80748 14.0738 4.3748 12.4818 4.3748C7.72585 4.3748 3.8704 8.23632 3.8704 12.9998C3.8704 17.7632 7.72585 21.6247 12.4818 21.6247C16.8059 21.6247 20.3857 18.4325 21 14.2727H23.8942Z" fill="white"/>
<path d="M23.8942 14.2727L24.4834 14.3374L24.5557 13.6799H23.8942V14.2727ZM20.3197 4.59617V5.18896H21.8205L20.7248 4.16338L20.3197 4.59617ZM16.8442 4.59617V4.00338H16.2515V4.59617H16.8442ZM16.8442 5.56185L16.5432 6.07248L17.437 6.59954V5.56185H16.8442ZM21 14.2727V13.6799H20.4884L20.4136 14.1861L21 14.2727ZM12.4818 25.0927C18.7 25.0927 23.8185 20.3862 24.4834 14.3374L23.3049 14.2079C22.7052 19.6638 18.0872 23.9071 12.4818 23.9071V25.0927ZM0.407211 12.9999C0.407211 19.6777 5.81233 25.0927 12.4818 25.0927V23.9071C6.46886 23.9071 1.59279 19.0247 1.59279 12.9999H0.407211ZM12.4818 0.907211C5.81233 0.907211 0.407211 6.32219 0.407211 12.9999H1.59279C1.59279 6.97521 6.46886 2.09279 12.4818 2.09279V0.907211ZM20.7248 4.16338C18.5675 2.14414 15.6683 0.907211 12.4818 0.907211V2.09279C15.3555 2.09279 17.9681 3.20699 19.9146 5.02895L20.7248 4.16338ZM16.8442 5.18896H20.3197V4.00338H16.8442V5.18896ZM17.437 5.56185V4.59617H16.2515V5.56185H17.437ZM17.1453 5.05121C15.7773 4.24456 14.1826 3.78201 12.4818 3.78201V4.96759C13.965 4.96759 15.3525 5.37041 16.5432 6.07248L17.1453 5.05121ZM12.4818 3.78201C7.39758 3.78201 3.27761 7.90982 3.27761 12.9998H4.46319C4.46319 8.56283 8.05411 4.96759 12.4818 4.96759V3.78201ZM3.27761 12.9998C3.27761 18.0897 7.39758 22.2175 12.4818 22.2175V21.0319C8.05411 21.0319 4.46319 17.4367 4.46319 12.9998H3.27761ZM12.4818 22.2175C17.1049 22.2175 20.9299 18.805 21.5865 14.3593L20.4136 14.1861C19.8414 18.0601 16.507 21.0319 12.4818 21.0319V22.2175ZM23.8942 13.6799H21V14.8655H23.8942V13.6799Z" fill="white"/>
</svg>
