<svg width="24" height="25" viewBox="0 0 24 25" fill="none" xmlns="http://www.w3.org/2000/svg">
<path d="M16.5915 8.15676C16.596 8.15676 16.602 8.15676 16.608 8.15676C16.7648 8.15676 16.9103 8.20551 17.0295 8.28951L17.0273 8.28801C17.1143 8.36376 17.1728 8.47026 17.187 8.59026V8.59251C17.202 8.68401 17.2103 8.78901 17.2103 8.89626C17.2103 8.94501 17.2088 8.99301 17.205 9.04101V9.03426C17.0363 10.811 16.3043 15.1198 15.9323 17.1088C15.7748 17.951 15.465 18.233 15.165 18.26C14.5133 18.3208 14.0183 17.8295 13.3868 17.4155C12.3983 16.7668 11.8395 16.3633 10.8803 15.731C9.77101 15.0013 10.4903 14.5985 11.1218 13.943C11.2875 13.7705 14.1608 11.1568 14.217 10.9198C14.22 10.9055 14.2215 10.8898 14.2215 10.8733C14.2215 10.8148 14.1998 10.7615 14.1645 10.721C14.1255 10.6955 14.0768 10.6813 14.0258 10.6813C13.992 10.6813 13.9598 10.688 13.9298 10.6993L13.9313 10.6985C13.8323 10.721 12.2533 11.7645 9.19426 13.829C8.86051 14.0923 8.43901 14.2588 7.98001 14.2783H7.97551C7.32526 14.1995 6.73501 14.0548 6.17476 13.8485L6.23026 13.8665C5.52676 13.637 4.96801 13.5163 5.01601 13.1278C5.04151 12.9258 5.32001 12.719 5.85151 12.5075C9.12551 11.081 11.3088 10.1408 12.4013 9.68676C13.6065 9.04701 15.0038 8.52051 16.473 8.17926L16.5908 8.15601L16.5915 8.15676ZM11.9475 1.39551C5.72101 1.41051 0.678757 6.46176 0.678757 12.6905C0.678757 18.9283 5.73526 23.9855 11.9738 23.9855C18.2123 23.9855 23.2688 18.929 23.2688 12.6905C23.2688 6.46176 18.2265 1.41051 12.0015 1.39551H12C11.9825 1.39551 11.965 1.39551 11.9475 1.39551Z" fill="white"/>
</svg>
