<svg width="25" height="24" viewBox="0 0 25 24" fill="none" xmlns="http://www.w3.org/2000/svg">
<path fill-rule="evenodd" clip-rule="evenodd" d="M0.47522 2.42155C0.47522 1.91192 0.68647 1.42317 1.0625 1.06281C1.43852 0.70245 1.94853 0.500003 2.48031 0.500003H22.4679C22.7315 0.49959 22.9925 0.548996 23.2361 0.64539C23.4797 0.741785 23.701 0.883276 23.8875 1.06176C24.0739 1.24025 24.2218 1.45223 24.3227 1.68556C24.4235 1.91889 24.4754 2.16899 24.4752 2.42155V21.5764C24.4755 21.829 24.4238 22.0791 24.3231 22.3126C24.2224 22.546 24.0747 22.7582 23.8883 22.9368C23.702 23.1155 23.4807 23.2572 23.2372 23.3538C22.9937 23.4505 22.7326 23.5001 22.469 23.5H2.48031C2.21691 23.5 1.95608 23.4503 1.71274 23.3536C1.4694 23.257 1.24832 23.1154 1.06211 22.9368C0.875908 22.7583 0.728236 22.5463 0.627535 22.3131C0.526834 22.0798 0.475077 21.8298 0.47522 21.5774V2.42155ZM9.97486 9.26927H13.2247V10.8333C13.6938 9.93418 14.8938 9.125 16.697 9.125C20.1541 9.125 20.9734 10.9159 20.9734 14.2017V20.2884H17.4749V14.9503C17.4749 13.0789 17.0058 12.023 15.8145 12.023C14.1618 12.023 13.4745 13.1615 13.4745 14.9503V20.2884H9.97486V9.26927ZM3.97486 20.1451H7.47449V9.125H3.97486V20.1441V20.1451ZM7.97522 5.53073C7.98182 5.81789 7.9285 6.10342 7.81839 6.37056C7.70828 6.6377 7.5436 6.88108 7.33402 7.0864C7.12443 7.29172 6.87416 7.45486 6.5979 7.56624C6.32163 7.67761 6.02494 7.73498 5.72522 7.73498C5.4255 7.73498 5.12881 7.67761 4.85254 7.56624C4.57628 7.45486 4.32601 7.29172 4.11642 7.0864C3.90684 6.88108 3.74216 6.6377 3.63205 6.37056C3.52194 6.10342 3.46862 5.81789 3.47522 5.53073C3.48817 4.96708 3.73091 4.43069 4.15146 4.03645C4.572 3.6422 5.13692 3.42144 5.72522 3.42144C6.31352 3.42144 6.87844 3.6422 7.29898 4.03645C7.71953 4.43069 7.96227 4.96708 7.97522 5.53073Z" fill="white"/>
</svg>
