<svg width="1497" height="4585" viewBox="0 0 1497 4585" fill="none" xmlns="http://www.w3.org/2000/svg">
<line x1="0.538208" x2="0.538208" y2="4585" stroke="white" stroke-opacity="0.2"/>
<line x1="30.4562" x2="30.4562" y2="4585" stroke="white" stroke-opacity="0.2"/>
<line x1="60.374" x2="60.374" y2="4585" stroke="white" stroke-opacity="0.2"/>
<line x1="90.2918" x2="90.2918" y2="4585" stroke="white" stroke-opacity="0.2"/>
<line x1="120.21" x2="120.21" y2="4585" stroke="white" stroke-opacity="0.2"/>
<line x1="150.128" x2="150.128" y2="4585" stroke="white" stroke-opacity="0.2"/>
<line x1="180.045" x2="180.045" y2="4585" stroke="white" stroke-opacity="0.2"/>
<line x1="209.963" x2="209.963" y2="4585" stroke="white" stroke-opacity="0.2"/>
<line x1="239.881" x2="239.881" y2="4585" stroke="white" stroke-opacity="0.2"/>
<line x1="269.799" x2="269.799" y2="4585" stroke="white" stroke-opacity="0.2"/>
<line x1="299.717" x2="299.717" y2="4585" stroke="white" stroke-opacity="0.2"/>
<line x1="329.635" x2="329.635" y2="4585" stroke="white" stroke-opacity="0.2"/>
<line x1="359.552" x2="359.552" y2="4585" stroke="white" stroke-opacity="0.2"/>
<line x1="389.47" x2="389.47" y2="4585" stroke="white" stroke-opacity="0.2"/>
<line x1="502.487" x2="502.487" y2="4585" stroke="white" stroke-opacity="0.2"/>
<line x1="532.405" x2="532.405" y2="4585" stroke="white" stroke-opacity="0.2"/>
<line x1="562.323" x2="562.323" y2="4585" stroke="white" stroke-opacity="0.2"/>
<line x1="592.241" x2="592.241" y2="4585" stroke="white" stroke-opacity="0.2"/>
<line x1="622.158" x2="622.158" y2="4585" stroke="white" stroke-opacity="0.2"/>
<line x1="652.076" x2="652.076" y2="4585" stroke="white" stroke-opacity="0.2"/>
<line x1="681.994" x2="681.994" y2="4585" stroke="white" stroke-opacity="0.2"/>
<line x1="711.912" x2="711.912" y2="4585" stroke="white" stroke-opacity="0.2"/>
<line x1="741.83" x2="741.83" y2="4585" stroke="white" stroke-opacity="0.2"/>
<line x1="771.748" x2="771.748" y2="4585" stroke="white" stroke-opacity="0.2"/>
<line x1="718.567" x2="718.567" y2="4585" stroke="white" stroke-opacity="0.2"/>
<line x1="748.484" x2="748.484" y2="4585" stroke="white" stroke-opacity="0.2"/>
<line x1="778.402" x2="778.402" y2="4585" stroke="white" stroke-opacity="0.2"/>
<line x1="808.32" x2="808.32" y2="4585" stroke="white" stroke-opacity="0.2"/>
<line x1="838.238" x2="838.238" y2="4585" stroke="white" stroke-opacity="0.2"/>
<line x1="868.156" x2="868.156" y2="4585" stroke="white" stroke-opacity="0.2"/>
<line x1="898.073" x2="898.073" y2="4585" stroke="white" stroke-opacity="0.2"/>
<line x1="927.991" x2="927.991" y2="4585" stroke="white" stroke-opacity="0.2"/>
<line x1="957.909" x2="957.909" y2="4585" stroke="white" stroke-opacity="0.2"/>
<line x1="987.827" x2="987.827" y2="4585" stroke="white" stroke-opacity="0.2"/>
<line x1="1017.74" x2="1017.74" y2="4585" stroke="white" stroke-opacity="0.2"/>
<line x1="1047.66" x2="1047.66" y2="4585" stroke="white" stroke-opacity="0.2"/>
<line x1="1077.58" x2="1077.58" y2="4585" stroke="white" stroke-opacity="0.2"/>
<line x1="1107.5" x2="1107.5" y2="4585" stroke="white" stroke-opacity="0.2"/>
<line x1="1137.42" x2="1137.42" y2="4585" stroke="white" stroke-opacity="0.2"/>
<line x1="1167.33" x2="1167.33" y2="4585" stroke="white" stroke-opacity="0.2"/>
<line x1="1197.25" x2="1197.25" y2="4585" stroke="white" stroke-opacity="0.2"/>
<line x1="1227.17" x2="1227.17" y2="4585" stroke="white" stroke-opacity="0.2"/>
<line x1="1257.09" x2="1257.09" y2="4585" stroke="white" stroke-opacity="0.2"/>
<line x1="1287.01" x2="1287.01" y2="4585" stroke="white" stroke-opacity="0.2"/>
<line x1="1316.92" x2="1316.92" y2="4585" stroke="white" stroke-opacity="0.2"/>
<line x1="1346.84" x2="1346.84" y2="4585" stroke="white" stroke-opacity="0.2"/>
<line x1="1376.76" x2="1376.76" y2="4585" stroke="white" stroke-opacity="0.2"/>
<line x1="1406.68" x2="1406.68" y2="4585" stroke="white" stroke-opacity="0.2"/>
<line x1="1436.59" x2="1436.59" y2="4585" stroke="white" stroke-opacity="0.2"/>
<line x1="1466.51" x2="1466.51" y2="4585" stroke="white" stroke-opacity="0.2"/>
<line x1="1496.43" x2="1496.43" y2="4585" stroke="white" stroke-opacity="0.2"/>
</svg>
