<svg width="1441" height="6950" viewBox="0 0 1441 6950" fill="none" xmlns="http://www.w3.org/2000/svg">
<line x1="0.538086" x2="0.538086" y2="6950" stroke="white" stroke-opacity="0.1"/>
<line x1="29.3374" x2="29.3374" y2="6950" stroke="white" stroke-opacity="0.1"/>
<line x1="58.1367" x2="58.1367" y2="6950" stroke="white" stroke-opacity="0.1"/>
<line x1="86.9358" x2="86.9358" y2="6950" stroke="white" stroke-opacity="0.1"/>
<line x1="115.735" x2="115.735" y2="6950" stroke="white" stroke-opacity="0.1"/>
<line x1="144.534" x2="144.534" y2="6950" stroke="white" stroke-opacity="0.1"/>
<line x1="173.333" x2="173.333" y2="6950" stroke="white" stroke-opacity="0.1"/>
<line x1="202.133" x2="202.133" y2="6950" stroke="white" stroke-opacity="0.1"/>
<line x1="230.932" x2="230.932" y2="6950" stroke="white" stroke-opacity="0.1"/>
<line x1="259.731" x2="259.731" y2="6950" stroke="white" stroke-opacity="0.1"/>
<line x1="288.531" x2="288.531" y2="6950" stroke="white" stroke-opacity="0.1"/>
<line x1="317.33" x2="317.33" y2="6950" stroke="white" stroke-opacity="0.1"/>
<line x1="346.129" x2="346.129" y2="6950" stroke="white" stroke-opacity="0.1"/>
<line x1="374.928" x2="374.928" y2="6950" stroke="white" stroke-opacity="0.1"/>
<line x1="403.728" x2="403.728" y2="6950" stroke="white" stroke-opacity="0.1"/>
<line x1="432.527" x2="432.527" y2="6950" stroke="white" stroke-opacity="0.1"/>
<line x1="461.326" x2="461.326" y2="6950" stroke="white" stroke-opacity="0.1"/>
<line x1="490.125" x2="490.125" y2="6950" stroke="white" stroke-opacity="0.1"/>
<line x1="518.924" x2="518.924" y2="6950" stroke="white" stroke-opacity="0.1"/>
<line x1="547.724" x2="547.724" y2="6950" stroke="white" stroke-opacity="0.1"/>
<line x1="576.523" x2="576.523" y2="6950" stroke="white" stroke-opacity="0.1"/>
<line x1="605.322" x2="605.322" y2="6950" stroke="white" stroke-opacity="0.1"/>
<line x1="634.121" x2="634.121" y2="6950" stroke="white" stroke-opacity="0.1"/>
<line x1="662.921" x2="662.921" y2="6950" stroke="white" stroke-opacity="0.1"/>
<line x1="691.72" x2="691.72" y2="6950" stroke="white" stroke-opacity="0.1"/>
<line x1="720.519" x2="720.519" y2="6950" stroke="white" stroke-opacity="0.1"/>
<line x1="749.318" x2="749.318" y2="6950" stroke="white" stroke-opacity="0.1"/>
<line x1="778.118" x2="778.118" y2="6950" stroke="white" stroke-opacity="0.1"/>
<line x1="806.917" x2="806.917" y2="6950" stroke="white" stroke-opacity="0.1"/>
<line x1="835.716" x2="835.716" y2="6950" stroke="white" stroke-opacity="0.1"/>
<line x1="864.515" x2="864.515" y2="6950" stroke="white" stroke-opacity="0.1"/>
<line x1="893.314" x2="893.314" y2="6950" stroke="white" stroke-opacity="0.1"/>
<line x1="922.114" x2="922.114" y2="6950" stroke="white" stroke-opacity="0.1"/>
<line x1="950.913" x2="950.913" y2="6950" stroke="white" stroke-opacity="0.1"/>
<line x1="979.712" x2="979.712" y2="6950" stroke="white" stroke-opacity="0.1"/>
<line x1="1008.51" x2="1008.51" y2="6950" stroke="white" stroke-opacity="0.1"/>
<line x1="1037.31" x2="1037.31" y2="6950" stroke="white" stroke-opacity="0.1"/>
<line x1="1066.11" x2="1066.11" y2="6950" stroke="white" stroke-opacity="0.1"/>
<line x1="1094.91" x2="1094.91" y2="6950" stroke="white" stroke-opacity="0.1"/>
<line x1="1123.71" x2="1123.71" y2="6950" stroke="white" stroke-opacity="0.1"/>
<line x1="1152.51" x2="1152.51" y2="6950" stroke="white" stroke-opacity="0.1"/>
<line x1="1181.31" x2="1181.31" y2="6950" stroke="white" stroke-opacity="0.1"/>
<line x1="1210.11" x2="1210.11" y2="6950" stroke="white" stroke-opacity="0.1"/>
<line x1="1238.91" x2="1238.91" y2="6950" stroke="white" stroke-opacity="0.1"/>
<line x1="1267.7" x2="1267.7" y2="6950" stroke="white" stroke-opacity="0.1"/>
<line x1="1296.5" x2="1296.5" y2="6950" stroke="white" stroke-opacity="0.1"/>
<line x1="1325.3" x2="1325.3" y2="6950" stroke="white" stroke-opacity="0.1"/>
<line x1="1354.1" x2="1354.1" y2="6950" stroke="white" stroke-opacity="0.1"/>
<line x1="1382.9" x2="1382.9" y2="6950" stroke="white" stroke-opacity="0.1"/>
<line x1="1411.7" x2="1411.7" y2="6950" stroke="white" stroke-opacity="0.1"/>
<line x1="1440.5" x2="1440.5" y2="6950" stroke="white" stroke-opacity="0.1"/>
</svg>
